<svg id="ColoringBook" xmlns="http://www.w3.org/2000/svg" viewBox="0 0 657.9 819"><title>coloringBook</title><g id="shapes"><path d="M85-62H688.9V713H85ZM276,57.76c-4.68,5.15-10.84,7.37-17.3,9.33a88.39,88.39,0,0,0-17,6.6c-38.93,21.37-59.9,54.81-65.43,98.52a13.11,13.11,0,0,1-2.84,6.38c-5.45,6.54-11.25,12.79-16.84,19.23-21.79,25.13-27.18,53.61-15.91,84.74,5.11,14.12,11.93,27.61,18.17,41.3,1.17,2.56,1.52,4.58.18,7.2s-1.83,5.35-2.7,8.05l1.54,1,5.8-8.12c6.08,8.61,11.1,16.41,16.85,23.61,3.1,3.88,4.44,7.29,2,11.77-.08.14.21.49.45,1l5.1-3.06c18.3,20.57,39.12,38.1,61.48,54.35-9.16,1.34-17.61,2.26-25.94,3.85-33.58,6.4-62.94,21.8-89.63,42.73-11.37,8.91-21.45,19-26.78,32.81-4.94,12.84-1.38,24,9.84,32,12.49,8.94,26.61,13.8,41.41,17.17a17.15,17.15,0,0,1,6.4,3.06c18.75,14.25,40,21.33,63.37,22.7a11.62,11.62,0,0,1,5.51,2.24c7,4.82,13.24,11.17,20.84,14.53,29.53,13.07,59.35,14.06,88.9-.6a6.65,6.65,0,0,1,4.51-.24c10.25,3.27,20.3,7.32,30.71,10,14.82,3.81,29.88,5.58,45,.75,1.25-.39,3.69.87,4.68,2.09a165,165,0,0,0,32.08,30.94c16.19,11.62,34,18.54,53.95,20,17,1.26,33.61-1.71,50.27-4.38,13.34-2.13,26.67-4.8,40.1-5.81,22.18-1.65,43.73,1.25,63.36,12.9.57.34,1.36.28,3.5.67-1.54-4-2.23-7.5-4-10.25-21.33-32.86-50.2-54.22-90.09-58.37-7.51-.78-15.07-1-23.31-1.61,4.17-3.19,7.89-5.76,11.3-8.7,11.11-9.57,19.09-21.63,26.51-34.08,10.68-17.91,25-30.94,46.17-34.79,3.84-.7,7.76-.93,11.65-1.37.12-.55.25-1.11.37-1.66-10.59-10.8-25.38-9.17-39.22-11.54a71.78,71.78,0,0,0,14.79-26.92c.43-1.44,1.8-2.66,2.9-3.82,4.3-4.49,9.23-8.5,12.86-13.46,5.84-8,6-16.5.43-25.1-5.89-9-13.72-15.87-22.83-21.29a197.23,197.23,0,0,0-71.31-25.27c-4.37-.67-5.4-2.71-2.73-6a263.51,263.51,0,0,0,36.14-59c14.4-32.29,22-66,18-101.32-3.54-31.18-17.3-56.63-46.11-71.74-5.76-3-8.31-7.47-10.18-13.11-2.55-7.63-4.53-15.64-8.3-22.65-20.57-38.26-52.79-58.75-96.19-60.7A34.46,34.46,0,0,1,417,35.86c-1.52-1.26-3.1-2.46-4.61-3.73C398.06,20,381.73,11.94,363,9.22c-25.2-3.68-46.81,4.44-65.56,20.91-8.92,7.84-16.82,16.68-21.67,27.8ZM589.84,652.81l1-1.17-6-4.16-1.09,1.14c.23,1.67.47,3.34.71,5.07Z" transform="translate(-31 62)" style="fill:#fff"/><path d="M274.8,57.93c4.85-11.12,12.75-20,21.67-27.8C315.22,13.66,336.83,5.54,362,9.22c18.7,2.72,35,10.73,49.39,22.91,1.51,1.27,3.09,2.47,4.61,3.73a34.46,34.46,0,0,0,21.41,8.49c43.4,1.95,75.62,22.44,96.19,60.7,3.77,7,5.75,15,8.3,22.65,1.87,5.64,4.42,10.09,10.18,13.11,28.81,15.11,42.57,40.56,46.11,71.74,4,35.37-3.55,69-18,101.32a263.51,263.51,0,0,1-36.14,59c-2.67,3.29-1.64,5.33,2.73,6a197.23,197.23,0,0,1,71.31,25.27c9.11,5.42,16.94,12.26,22.83,21.29,5.61,8.6,5.41,17.12-.43,25.1-3.63,5-8.56,9-12.86,13.46-1.1,1.16-2.47,2.38-2.9,3.82A71.78,71.78,0,0,1,610,494.74c13.84,2.37,28.63.74,39.22,11.54-.12.55-.25,1.11-.37,1.66-3.89.44-7.81.67-11.65,1.37-21.18,3.85-35.49,16.88-46.17,34.79-7.42,12.45-15.4,24.51-26.51,34.08-3.41,2.94-7.13,5.51-11.3,8.7,8.24.56,15.8.83,23.31,1.61,39.89,4.15,68.76,25.51,90.09,58.37,1.79,2.75,2.48,6.21,4,10.25-2.14-.39-2.93-.33-3.5-.67-19.63-11.65-41.18-14.55-63.36-12.9-13.43,1-26.76,3.68-40.1,5.81C547,652,530.45,655,513.43,653.73c-19.95-1.47-37.76-8.39-53.95-20a165,165,0,0,1-32.08-30.94c-1-1.22-3.43-2.48-4.68-2.09-15.12,4.83-30.18,3.06-45-.75-10.41-2.68-20.46-6.73-30.71-10a6.65,6.65,0,0,0-4.51.24c-29.55,14.66-59.37,13.67-88.9.6-7.6-3.36-13.86-9.71-20.84-14.53a11.62,11.62,0,0,0-5.51-2.24c-23.36-1.37-44.62-8.45-63.37-22.7a17.15,17.15,0,0,0-6.4-3.06c-14.8-3.37-28.92-8.23-41.41-17.17-11.22-8-14.78-19.2-9.84-32,5.33-13.85,15.41-23.9,26.78-32.81,26.69-20.93,56.05-36.33,89.63-42.73,8.33-1.59,16.78-2.51,25.94-3.85-22.36-16.25-43.18-33.78-61.48-54.35l-5.1,3.06c-.24-.51-.53-.86-.45-1,2.42-4.48,1.08-7.89-2-11.77-5.75-7.2-10.77-15-16.85-23.61l-5.8,8.12-1.54-1c.87-2.7,1.42-5.56,2.7-8.05s1-4.64-.18-7.2c-6.24-13.69-13.06-27.18-18.17-41.3-11.27-31.13-5.88-59.61,15.91-84.74,5.59-6.44,11.39-12.69,16.84-19.23a13.11,13.11,0,0,0,2.84-6.38c5.53-43.71,26.5-77.15,65.43-98.52a88.39,88.39,0,0,1,17-6.6c6.46-2,12.62-4.18,17.3-9.33-1.13,4.72-4.94,6.77-8.86,8.34-4.78,1.92-9.92,3-14.64,5-40.16,17.25-64,48.05-72.1,90.53C177,174.06,172.21,183.89,163,192c-1.25,1.11-2.41,2.33-3.55,3.55-15,16.18-23.7,35-22.4,57.43,1.28,22.11,8.78,42.48,19.07,61.89,1.66,3.13,3.5,6.17,5.4,9.49,2.06-2.3,4-3.78,5-5.73,2.6-4.79,6-9.43,2.52-15.49-2.17-3.79-3.52-8.08-5.13-12.19-5.79-14.79-8.7-30.09-7.76-46,1.07-18,9.22-33.1,20.23-46.56,8.95-10.95,14.35-22.8,18-36.58,9.66-36,32.79-61.76,66.55-77.15,12.72-5.8,24.83-11.23,30.58-25.07a4.3,4.3,0,0,1,.79-1.12C314.23,34.11,340.51,23.85,373,32.78c15,4.11,27.7,12.29,40,21.34A24,24,0,0,0,426.34,59c15.39,1,30.48,3.9,44.59,10.43,27.12,12.56,45,33.49,53.17,62.07,3.39,11.81,9.25,20.34,19.62,27,15.63,10,25.64,24.79,31.48,42.43,6.89,20.76,5.47,41.71,1.73,62.74-5.16,29-17.76,54.84-34.23,78.95a62.89,62.89,0,0,1-4.6,5.36,7.16,7.16,0,0,1,.65-2.07c21.88-30.23,35-63.79,38.88-101,3-29.22-5.29-54.5-25.54-75.63-5.24-5.47-11.65-9.81-18.23-15.26-8.74,70-22.27,137-54.65,199.17,2.45,1.38,4.61,2.45,6.62,3.76,8.32,5.43,16.45,6.64,25.12.31,6-4.4,12.71-6.07,18.81,0l8.5-9.43c-2.26,3.67-4.53,7.33-6.8,11l11,12c5-6.7,10.33-13,14.64-19.95,15.48-25,28-51.27,34.44-80.16,5.5-24.65,7.84-49.37,1.2-74.18-6.46-24.08-19.71-42.85-42.4-54.47-3.48-1.78-6.11-5.79-8.3-9.3-1.81-2.88-2.43-6.52-3.5-9.84-8.36-26-24.39-45.93-47.33-60.52C475.81,52.57,458.76,48.16,440.77,47c-9.93-.66-18.84-2.9-26.71-9.79C404.69,29,394.54,21.7,382.85,16.83,364,9,345,7.31,325.61,14.63,308,21.29,294.39,33.12,283.12,48,280.5,51.39,277.58,54.61,274.8,57.93ZM407.09,320.28c3.59.35,7.23,1.2,10.77.93,5.54-.41,8.79-3.91,9-8.95-6.95,5.09-14.27,7.48-22.85,4.21l3.21,4-3.55-1.74c3.79,8.06,13.41,9.79,18.4,3.72C416.81,323.42,411.58,324.36,407.09,320.28Zm145.5,196.11,7.94-7.6a9,9,0,0,0-4.9,1.28c-8.06,4.86-16.33,9.43-24,14.81-13.46,9.39-26.28,19.69-39.85,28.89-23.95,16.25-46.57,12.78-64.86-9.26-.21-.25-.61-.33-1.61-.85a27.26,27.26,0,0,0,1.33,3c16.55,26.8,45.19,30.91,68.87,17.11C508.81,556,520,544.47,532,534.46c7.08-5.91,13.87-12.15,20.79-18.24a9.89,9.89,0,0,1-1.34,2.17c-5.07,4.82-10.09,9.71-15.33,14.34-13,11.46-24.59,24.63-40.08,32.92-17.66,9.46-35.66,11-53.22-.2-5.51-3.5-10.18-8.35-15.69-13,.8,2,1.11,3.87,2.17,5.14,7.29,8.68,16.12,15.86,26.93,18.87,24.55,6.82,47.54,2.24,67.36-13.83,10.1-8.18,18.84-18.09,28-27.41S569.68,516,579.1,506.76c3.34-3.28,7.8-5.41,12.53-8.58-11.7,1.71-22.14,3.83-30.42,11.83C558.66,512.47,555.48,514.28,552.59,516.39ZM450.52,584.2c-15.42-7.68-26.43-19.82-33.66-35.15-3.24-6.87-4.55-14.64-6.57-21.44.12,1.54.15,3.8.49,6,3.52,23,16,40.7,33.53,55.15,5.19,4.28,10.85,8,16.29,12a16.24,16.24,0,0,1-2.53-.94c-26.64-15.4-44.61-37.09-49.73-68.26a79.83,79.83,0,0,0,1.35,12c10.18,45.78,50.6,89.31,115.22,83.13,20.12-1.93,40.21-4.2,60.36-5.71,17.07-1.27,34.07-.24,50.51,5.15,5.72,1.88,11.32,4.16,17.78,6.55-4.95-6.91-10-12.81-17.3-15.25-11.19-3.73-22.56-7.33-34.13-9.46-17.51-3.22-35.14-.79-52.68,1.2-19.66,2.22-39.38,3.71-59.12,1.37-10.57-1.25-20.79-4-29.87-10a13.45,13.45,0,0,1,2.94.72,84.82,84.82,0,0,0,41.47,8.9c17.3-.57,34.58-2.18,51.84-3.67,20.22-1.75,40.38-2.67,60.32,2.24,5,1.22,9.9,2.77,14.85,4.17a10.34,10.34,0,0,0-3.86-3.33c-16.51-7.4-33.66-12.75-51.87-12.69-18.83.07-37.66,1.32-56.51,1.76-17.64.4-35.39.68-52.25-5.65-6-2.23-11.36-5.95-17-9,4.67,2.1,9.26,4.42,14,6.27,23.68,9.17,48.29,7.08,72.86,6.07,16.06-.67,32.17-1,48.22-.45,8.39.27,16.7,2.65,26.2,4.28-9.88-4.76-19.23-8.05-29-8.72-20.44-1.39-41-1.69-61.42-2.76-13.48-.7-27-1.32-40.38-3.12-18.75-2.53-35.67-9.81-49.65-23-7.48-7-12.23-15.94-16.43-26.4a18.73,18.73,0,0,0,0,2.47c.23,1,.5,2.06.82,3.07,5.19,16,15.57,28,29,37.63C446.72,580.87,448.58,582.59,450.52,584.2ZM216.66,488.71c-.36.6-.73,1.19-1.38,2.26,10.79-1.28,20.56,1.26,30.08,4.92,9.91,3.81,19.7,7.95,29.6,11.77,26.52,10.24,53.83,17.3,82.26,19,13.27.78,26.62.13,40.31.13-.58-6.4-1.06-11.76-1.57-17.38-1.73.23-2.92.37-4.1.54-23.57,3.4-47.05,3.31-70-3.49-16-4.74-31.7-10.48-47.58-15.6-19-6.13-38.25-8.35-57.74-2A38.9,38.9,0,0,1,222,486a58.74,58.74,0,0,1,35-1.16q26.7,7.53,53,16.52c28.09,9.58,56.62,11.23,85,6.65,1.71-13.55,3.36-26.57,5-39.57-11.89,4.81-23.78,4.57-36-.21-10.88-4.24-22.15-7.57-33.39-10.79-20.12-5.76-40.55-8-61.24-3.24-5.36,1.24-10.55,3.2-15.81,4.83,14-8.61,29.55-9.66,45.82-8.87-7.34-15.69-4.45-29.84,4.69-44.48-6.28.56-11.65,0-16.28,1.62-16.79,5.81-29.68,17.32-40.25,31.11-11.88,15.51-22.75,31.81-34.52,48.42ZM200.1,186.92a22.2,22.2,0,0,1,2.19,2.69c6.3,10.76,12.45,21.61,18.87,32.3,7.28,12.13,14.92,24,24.12,33.39,6.63-2.44,12.63-4.86,18.77-6.84,4.91-1.57,10.12-2.24,15-3.93,14.76-5.16,16.84-16.39,12.94-29.41-1.55-5.18-4.55-6.21-9.78-5.39-5.81.92-11.68,2.16-17.51,2.09-8.26-.09-10.67-3.16-10.61-11.38a20.09,20.09,0,0,1,.36-4.53c3.3-13.24,6.58-26.48,10.1-39.65a64.77,64.77,0,0,1,4.37-11.48c5.49-11.35,13.22-19.63,27.15-19.29,3.59.08,5.48-3.26,4.43-6.56-4.33-13.6-8.61-27.23-12.93-40.84-.47-1.46-1.11-2.86-1.29-3.33-5.06,2.93-9.6,5.82-14.39,8.23-5.41,2.73-11.28,4.6-16.53,7.59-29.75,16.89-50.18,41.28-59.35,74.68-1.57,5.72-1.77,10.93,1.8,16,1.18,1.68,1.66,3.85,2.46,5.8l-6.07-8.75c-5.09,7.33-10.43,14.62-15.33,22.2-5.6,8.64-11.85,17.07-15.93,26.42-6.39,14.66-5.64,30.32-2.56,45.79a106.46,106.46,0,0,0,12.79,34.18c.83-1.63,1.06-2.92,1.83-3.48,6.59-4.79,12.74-10.62,20-13.9,14.1-6.34,30.15.3,38.05,14.42,4.6,8.21,8.67,16.84,17,22.16,3.49,2.23,7.08,4.55,11.36,1.83,3.91-2.48,5.92-8.2,4.77-13.32a24.88,24.88,0,0,0-9.73-14.48c-7.81-5.91-13.3-12.83-11.78-23.93a42.1,42.1,0,0,1-4.36,3.51c-1.92,1.16-3.58,1-3.78-1.75-.52-6.73,4.49-11.35,6.61-17.07,2.07-.6,4.19-1,6.18-1.85a54.7,54.7,0,0,0,5.4-2.86c-11.2,8.89-16.13,15.22-15.73,21.73,3-3.29,5.76-6.5,8.69-9.57s5.8-5.77,8.71-8.65c.62,1,.56,1.27.39,1.43-14.87,14.68-14.41,24.42,1.38,37.78a47,47,0,0,1,9.57,10.83c3.79,6.08,2.1,13.57-3.17,18.24-4.3,3.8-10.47,3.78-16.44-.34a23.57,23.57,0,0,1-6-5.47c-3.85-5.46-7.52-11.08-10.83-16.87-4.29-7.48-10-12.89-18.54-15-11.47-2.89-20.85,2-29.66,8.3-5.66,4-10.47,9-13,16.17,22.64-8.26,32.65-8.94,38.83-2.74-21.8-5.37-46.23,5-49.38,19.92,5.2-2.37,10.8-6.35,16.92-7.44,14.59-2.58,28.68-.06,40.32,9.78a270.78,270.78,0,0,1,21.51,20.95c11.12,11.74,24.22,18.21,40.63,16.41,4-.44,7.93-1.62,11.89-2.46-8.25,5.13-17.26,6.41-26.57,4.71-14-2.57-24.46-10.89-33.26-21.68a15.08,15.08,0,0,0-5.11-4.32c-15.2-6.78-33.61.32-41.21,15.86a5.29,5.29,0,0,0,1.3-.27c16.68-8.46,32.29-5.92,47,4.78,9.47,6.89,18.6,14.25,28.23,20.9,12,8.3,25.05,14.35,39.9,15.64,3.49.3,5.87-.66,6.9-4.13-7.22-10.08-8-21.95-1.32-30.07,2.49-3,5.95-6.1,9.56-7.21,8.23-2.54,16.46-.93,24.23,3.25,4.72-9.16,8.32-17.9,2.12-27.72-2.24-3.54-3.22-7.85-5-11.71s-4-7.32-5.67-11.11a16.36,16.36,0,0,1-1.11-5.59c-.2-2.87.23-5.83-.26-8.65-.63-3.72-2-7.32-2.86-11-3.13-13.3,1.16-23.88,12.51-31.62,3.18-2.17,6.08-4.76,9.87-7.77-4-1-6.71-1.75-9.49-2.3-9.12-1.83-16-6.4-19.17-15.54a3.56,3.56,0,0,0-1.31-1.77c-3.11-1.92-6.29-3.72-8.32-4.9-3.1,5.8-5.72,12.33-9.76,17.81-4.57,6.21-10.38,11.51-15.71,17.15-8.7,9.19-13.14,19.68-10.09,32.57-3.57-8.49-3.37-17.13,1.59-24.5,5.66-8.38,12.56-16,19.28-23.57,6-6.8,10.28-14.26,11.46-23.34.32-2.4-.06-3.88-2.79-5.23-4-2-7.34-5.22-11-7.87-1.16-.83-2.44-1.49-3.67-2.22,1.81,4.23,4.2,7.79,4.82,11.63,2.25,14.06-4.69,24-19.28,27.95-11.8,3.17-24.18,4.76-33.59,13.76l1.41-3.68c-17.53-20.68-30.66-44.25-43.59-67.95A11.4,11.4,0,0,1,200.1,186.92ZM526.17,358.06c-1.84-4.49-5.22-3.86-8.54-2.31-4.12,1.94-8.14,4.12-12.09,6.38-11.4,6.54-23.29,10.43-36.56,7.1-4.27-1.07-8.51-2.27-12.72-3.56-14.5-4.44-28.93-9.17-43.53-13.29-4.28-1.21-7.33-2.93-9.36-6.9-1.94-3.79-4.37-7.31-6.51-11-9.75-16.83-20.44-33.15-27-51.68C365.71,271,359,261.64,344.12,260.53c7.47-1.65,13.11.29,17.22,5a88.47,88.47,0,0,1,9.9,14.56c2.33,4.07,3.74,8.65,5.74,12.92a5.25,5.25,0,0,0,2.65,2.75c6,1.69,12.16,3.1,18,4.55-.46-.76-1.23-2-2-3.29l1.29-.66c1.52,2.86,3.05,5.72,4.15,7.78,3.65-4.76,7.66-9.85,11.47-15.08.63-.87.58-2.37.55-3.57-.07-2.9-.31-5.8-.49-8.69h.93c.55,3.23,1.11,6.45,1.65,9.59,8.79-.27,10.81.81,12.17,6.27,1.41,5.63,3.27,10.86,1.85,17.23s-2.26,12.26-7.66,16.52a5.21,5.21,0,0,0-1.31,2.76c-.85,3.39-1.54,6.82-2.35,10.21-.88,3.71,4.4,13,7.93,14.1,8.67,2.79,17.24,5.89,26,8.51,8,2.39,16,4.87,24.18,6.25,7.17,1.22,14.48.47,21.05-4.37-5.22-2.21-10.21-4-14.93-6.4-10.17-5.13-20.08-10.81-30.34-15.74-4.76-2.29-7.29-5.44-8.9-10.43-4.89-15.15-12.62-29.39-14.18-45.61-.43-4.53-1.39-9-2.19-13.5-1.62-9.1-6.8-15.41-15.1-19.29-8-3.76-16-7.57-24.19-11.41.28,3.17.61,6.83.93,10.49l-1.57.17c-1-8.93-1.93-17.86-3-27.3-3.37,6.7-6.15,12.95-9.56,18.84-6.2,10.75-7.78,11.25-19.86,8.89a5.49,5.49,0,0,0-4,.62c-3.93,3.09-7.48,6.67-11.45,9.71-6.26,4.81-10.07,10.94-9,18.85a245.93,245.93,0,0,0,5.72,29c.71,2.68,4.48,4.56,6.85,6.81l1.08-1.08-6.54-9.12,1.44-1.23c1.38,1.8,2.82,3.56,4.14,5.4,6.5,9,12.8,18.14,19.49,27,9.81,13,19.73,25.87,30,38.47,2,2.43,5.7,4,8.9,4.74a55.77,55.77,0,0,0,12.68,1.07c17.2.12,34.41-.08,51.61.16a95.08,95.08,0,0,1,18.54,1.84c5.89,1.27,11.13.87,16.16-2.3,3.47-2.18,6.84-4.51,10.28-6.73,7-4.56,10.06-4,15.24,2.89,1,1.33,1.91,2.76,3,4s2.43,2.29,3.66,3.42l1.44-1.2c-4.22-6.14-8.43-12.29-13-18.89,9.08,6,13.29,14.71,16.4,24.16-1.13-12.26-8.19-21.45-15.27-30.62a43.22,43.22,0,0,1,16.4,23.1,50.19,50.19,0,0,0-4.6-13.31c-1.79-3.44-4.27-6.52-6.45-9.76,8.36,5.89,11.59,15.25,15.76,24.05-.69-4.33-1.39-8.79-3.77-12C535.33,366.62,530.51,362.52,526.17,358.06Zm-11,41.29c.55-2.46,1.18-4.91,1.66-7.38,1.07-5.63,2.06-11.27,3.31-18.08l-5.66,1.78,1.29.6c-.8,5.72-1.58,11.46-2.43,17.18-.34,2.3-1.65,4.85,2,5.76-3.12,3.55-10.69,2.57-12.69-2-1.42-3.27-1.84-7-2.52-9.71-4.71.17-9.61.75-14.45.41-5.24-.37-10.39-2-15.62-2.35-6.37-.43-12.8.13-19.18-.16-11.55-.52-22.66.5-32.9,6.67-2.83,1.7-5.21,2.7-5.42,6.77a17.56,17.56,0,0,1-3.5,8.78c-3.89,5.35-8.36,10.29-12.47,15.24.39.9.94,2.2,1.5,3.49-1.36.53-2.73,1.53-4.07,1.48-3.3-.12-7,.1-9.79-1.29-8.54-4.24-16.79-9.06-25-13.88-10.33-6.05-20.42-12.51-30.82-18.43-5.05-2.88-9.78-2-13.5,3-2,2.67-4.55,4.9-6.75,7.43C297.22,417.22,295,431.39,301,446.78a7.66,7.66,0,0,0,5.16,4.05c21.38,2.83,41.81,9.09,61.9,16.65,7.86,3,15.82,2.7,23.76.71,6.6-1.66,10.83-5,13.34-12.36,9.64-28.17,27.73-49.34,55.08-62,2.68-1.23,5.54-2.1,8.31-3.14a10.55,10.55,0,0,1-4.16,2.88c-20.59,9-36.79,22.8-47.91,42.53-16.1,28.58-20.25,59.25-16,91.33,1,7.31,3.26,14.45,4.94,21.68,1-1.77.87-3.3,1-4.8.69-6.14,1.39-12.29,2.33-18.39a3.34,3.34,0,0,1,2.42-2.19c.77,0,1.91,1.31,2.3,2.28,1.78,4.37,3.23,8.86,5,13.22,1.58,3.83,3.45,7.54,5.2,11.31a8.83,8.83,0,0,0-.27-4.79c-6.39-24.25,3.4-51.94,24-66.26,12.08-8.43,24.52-16.38,37-24.23,14.67-9.24,29.37-18.41,41.71-30.77,7.53-7.54,12.86-16.25,12.68-27.38a6.62,6.62,0,0,0-1.57-4.45c-3.22-2.86-6.8-5.31-10.34-8-1.67,3.93-3,7.34-4.58,10.6a8.36,8.36,0,0,1-2.69,2.6C517.14,395.76,516.51,398.57,515.2,399.35Zm-16-269.63-11.92.73c8.73-4.95,18-4.68,27.47-3.9-13.94-10.74-28.11-6.38-42.31-.28l-.55-1.12,18.33-14.32c-10.51.13-15.19,3-31.26,18.82l-1-.88q8.61-9.8,17.21-19.61a55.62,55.62,0,0,0-8.33,6.46c-10.08,10.15-19.7,20.77-30.14,30.54-4.18,3.91-9.74,6.74-15.15,8.86-6.71,2.62-14.92,0-18.59-5,9,5.5,17.42,5.48,25.67-.49-8.56.63-15.17-3.62-21.74-8.15-7.2-5-13.79-11.26-23.43-11.17-.48,0-1-.54-1.44-.83-3.85-2.29-7.47-5.21-11.6-6.75-13.33-5-27.25-3.62-41.07-2.9-.15,0-.29.44-.59,1l12,7.12-.25,1.32c-12.9-7.12-25.74-15.3-41.14-3.36l52,13.14c-3.35-.88-7.09-.22-10.49-1-11.37-2.63-22.59-5.89-33.92-8.69-7.31-1.8-15-2.91-21.9.51-9.94,4.91-19,20.31-19.5,31.56C276.36,145,300.39,143,316.26,147.19c-7.8.41-16.32.47-24.74,1.4-12.23,1.35-22.24,6.76-26.92,18.82a221.84,221.84,0,0,0-7.78,25.25c-.92,3.58-.39,7.54-.48,11.33-.1,4.24,2.41,5.68,6.16,5.31,5.14-.5,10.24-1.25,15.37-1.86,6.91-.82,13.82-1.59,20.74-2.39.93-.11,1.86-.26,2.8-.39l.39-1.13c-2.43-1.42-5.36-4.54-7.2-4-7.71,2.33-15.17,2.71-22.87.44-.79-.23-1.93.72-2.91,1.12.8.73,1.53,2,2.41,2.09a63.4,63.4,0,0,0,7.43.11,5.84,5.84,0,0,1-4.16,1.77c-2.25-.25-5.77-.54-6.32-1.84-.76-1.81,0-5.29,1.41-6.78a67.1,67.1,0,0,1,11.82-9.83c10.22-6.66,21.9-9.64,33.6-12.48,18.43-4.48,38-6,53.13-20.88,0,2.34-.08,3.71,0,5.07a22.26,22.26,0,0,0,24.6,20.51,141.08,141.08,0,0,1,21.83-1,40.36,40.36,0,0,1,29.93,14.5c7.62,8.89,7.81,19.26,6.23,30a64.84,64.84,0,0,1-.39-7.66c-.35-11.49-4.36-21.08-14.43-27.46-10.74-6.79-22.5-8.62-34.95-7.31-7.46.79-15.1,2.93-22-2.12a28.78,28.78,0,0,0-2.81-1.61c1.18,2,2.53,3.89,4.37,4.73,6.71,3.09,13.48,6.14,20.44,8.62,7.74,2.76,15.46,5.2,22.05,10.51,18.65,15,19.18,41.85,10.07,57.69,4-14.72,5.79-29.33-2-43.39-8-14.48-22.2-19.3-35.43-23.17-3.25,4-6,7.26-8.58,10.61a4.57,4.57,0,0,0-1.09,2.69c.35,10,.68,20,1.38,30,.14,2,1.33,4.64,2.87,5.53,6.4,3.72,12.9,7.47,19.77,10.13,10.75,4.14,16.53,12,19,22.71,1.08,4.58,1.4,9.33,2.22,14,1.58,8.91,3.18,17.83,7.66,26.28,1.34-1.41,2.41-2.48,3.42-3.6,14.82-16.56,19.6-36.37,18.4-58-.57-10.23-1.08-20.4,2.49-30.26,2.05-5.69,4.88-10.9,9.83-14.81-6.89,9.67-9.05,20.6-9.32,32.12,6.39-9.75,15.56-16.38,24.58-23.07,10.09-7.48,19.7-15.39,26.27-26.3,8.85-14.7,11.31-29.8,1.83-45.26-4.11-6.69-10.38-10.9-17.24-14.24,9.19,1.36,15.69,6.85,19.77,14.66,8.57,16.41,7.64,32.88-1.9,48.65-5.51,9.13-13.74,15.71-22.09,22.17-8.52,6.58-16.84,13.44-25,20.44-5.4,4.63-7.14,10.63-6.71,17.93,1.42,23.93-3.07,45.86-23.59,61.62,1.64,4.8,3.72,9.43,4.75,14.28,1.17,5.53,3.42,9.27,9.34,10.57,2.72.6,5.17,2.51,7.73,3.84l16,8.39a40.24,40.24,0,0,0,2.06-3.68c7.25-17.39,15.33-34.5,21.52-52.26,15.76-45.3,25.07-92.11,30.42-139.73.14-1.29.24-3.13-.5-3.87-6-6-7.54-14.14-10.14-21.68-12.26-35.43-36.44-57.49-73-65.52-8.49-1.86-17.23-2.62-26.41-4v84.67c6.3,2.47,11.33,1.74,16.32-3.31,6.63-6.7,12.88-13.79,19.58-20.41a177.86,177.86,0,0,1,16-14.11c2-1.54,5.18-1.53,7.82-2.23l.56,1.57-5.13,4.52c5.78-2.25,11.34-4.83,19-2.06l-12.87,9.23a5.45,5.45,0,0,0,2.91-.14c10.22-1.78,20.31-2.45,29.13,4.54,1.49,1.18,2.47,3,3.68,4.51l-.75,1.4ZM417.05,145.6c.65-.91.79-1,.81-1.15,3.91-27,3.83-54,1.35-81a4.52,4.52,0,0,0-1.93-2.73c-5.63-3.88-11.33-7.66-17-11.43-14.44-9.55-30-16.81-47.54-16.42-27.27.61-48.39,13.32-63.8,35.67a6.52,6.52,0,0,0-.66,4.63c1.22,5.49,2.57,11,4.25,16.33,3.21,10.25,6.67,20.42,9.73,29.73,5.62-.74,10.18-1.64,14.77-1.86,3.43-.15,6.9.89,10.35.85,9.39-.12,18.82-1.19,28.16-.65,10.18.58,20.32,2.4,27.72,10.78a3.35,3.35,0,0,0,2.39.89c6.34-.28,11.35,2.72,16.27,6.19S411.91,142.15,417.05,145.6ZM411.9,575.17c-1.14-4.11-2-7.78-3.18-11.37-2.39-7.46-2.67-7.59-10.46-6.74-1.2.13-2.42.17-3.63.23a135.53,135.53,0,0,1-46.81-6.09c-8.56-2.7-15.87-1.67-24,1.19-37.21,13-72.32,8.39-105.2-13.57a23.28,23.28,0,0,0-10.8-3.66c-11.94-.85-24-.41-35.86-1.69a78,78,0,0,1-34.15-11.86c-13.27-8.55-15.21-20.64-5.48-33a37,37,0,0,1,5.63-6c31-24.91,65.83-41.12,105.31-46.9,1.31-.19,2.88-.31,3.81-1.09,4.28-3.55,8.37-7.33,12.52-11l-1.15-1.49c-1.14-.08-2.28-.22-3.42-.24-15-.33-29.7,2.18-44.12,6.11C181.7,436,155.93,450.59,132.15,469c-10.39,8-18.73,17.79-23.67,30.16-4.62,11.56-2.6,19.54,7.12,27.43A46.19,46.19,0,0,0,124,532c21.07,10.56,43.28,17.16,67,16.83,9.58-.14,17.2,1.94,25.38,7.64,32,22.28,67.25,26.4,104.45,15.68,11.48-7.46,23.22-4.66,35.34-1.62A164.85,164.85,0,0,0,411.9,575.17ZM253.33,501.43c-2.84-1.16-5.18-2.2-7.58-3.09-8.57-3.16-17.18-6.09-26.58-5-2.07.25-3.34.63-4.41,2.84-.92,1.92-3.36,4.45-5,4.4-3.88-.12-5.9,2-8,4.4-5.1,5.93-10.08,12-15.11,18l-1-.19,1.74-12.45c-1.75,2-3.24,4.17-5.23,5.75-1.23,1-3.46,1.81-4.8,1.37-5.92-2-8.48-10.75-4.94-16,4.64-6.92,11.68-9.86,19.4-11.65,3.7-.86,7.84-.43,10.09-4.84.54-1.06,3.47-1.75,4.93-1.32,4.51,1.33,6.92-1.17,9-4.25Q229,460.23,242.08,441a24,24,0,0,0,1.34-2.64,4.81,4.81,0,0,0-1.26-.27c-37.68,5.84-71,21.4-100.54,45.33-5.58,4.52-10.31,9.9-12.72,16.95-1.57,4.59-1.19,9.07,2.3,12.29a60.06,60.06,0,0,0,13.11,9.59c19.55,9.93,40.71,11.61,62.14,10.73a16.07,16.07,0,0,1,11.69,3.76c2.69,2.25,5.07,2,7.82.28C239.36,528.72,247.35,516.29,253.33,501.43Zm263.88-63.68c1.46,2,2.51,3.69,3.78,5.18,11.84,13.88,26.45,24.12,42.56,32.39,3.2,1.65,5.79,2.3,7.66-1.87.52-1.15,2.32-1.88,3.67-2.47,3.48-1.5,7.1-2.7,10.57-4.22,10.66-4.68,20.74-10.39,28.42-19.33,8-9.29,7.13-16.05-2.48-23.47-11.48-8.87-24.77-14.22-38.37-18.57-10.32-3.3-21-5.38-32.18-8.15C540,415.53,530.82,427.72,517.21,437.75ZM438.24,553c1.63,1.09,3.94,2.7,6.29,4.22,5.51,3.58,11.05,3.74,16.61.07,3.93-2.59,8.42-4.6,11.71-7.83,5.92-5.85,12.7-8.1,20.69-7.07s14.11-2,20.32-6.75c15.55-11.95,31.26-23.89,49.49-31.51,6.52-2.72,11.09-6.51,14-12.66,3.12-6.56,8.43-10.34,15-13a254.47,254.47,0,0,0,24.33-11.31c8.59-4.59,16.78-9.86,22.3-18.39,4.48-6.92,5.54-14.12.9-20.95A69.28,69.28,0,0,0,626.78,413c-13.11-10.67-28.37-17.67-44.33-22.89-12.17-4-24.61-7.13-37.26-10.74.15,2.84.24,4.54.35,6.57l-4.41-.54c.19,3.93.37,7.56.53,10.8,7.56,1.23,15.89,2.06,24,4,16.94,4.1,33.24,10.14,46.76,21.55,10.87,9.17,12.24,16.68,1.07,29.5a6.66,6.66,0,0,1-.67.63,104,104,0,0,1-35.89,20.26,10.87,10.87,0,0,0-5.43,4c-19.27,30-47.52,46-81.84,51.71-8.79,1.47-16.08,4.13-23.34,9.35C457.65,543.4,447.73,547.79,438.24,553Zm228.93,99.88c-3.12-8.89-8-14.82-15.78-18.49-21.47-10.18-44.11-13.37-67.55-11.49-20.14,1.62-40.24,3.79-60.37,5.58-45.92,4.06-84.56-16.88-106.06-57.81-4-7.63-6.69-15.94-9.94-23.82.27,2.36.54,4.92.85,7.47.15,1.21.35,2.41.59,3.6,4,20.31,13.86,37.51,27.75,52.57,28.46,30.87,63.72,43.65,105.21,38.87,21.71-2.51,43.28-6.34,65-8.83C627.84,638.16,648.17,640.47,667.17,652.92Zm-358.67-448,.79-1,6.37,1.55-3.05-5.36,6.15,3.45c-.22-1.4-.33-2.09-.41-2.54l8.93,3.41.32-.83-5.43-4.91c2.36.63,4.08,2.16,6.08,3.05,8.68,3.89,12.12,10.38,11,19.84-.2,1.69,2.06,3.91,3.61,5.45.91.9,2.67.92,4.39,1.45-6.36,2.54-8,1.91-9.29-4-.58-2.78-.1-5.79-.1-8.86-3.41,1.69-6.07,3.07-8.79,4.33-3.92,1.82-7.2,1.47-9.33-2.86a34.91,34.91,0,0,0-3.48-5.87c-.67-.87-2.1-1.15-4.24-2.24,3.12,5.12,5.7,8.72,7.59,12.65,1.64,3.4,2.43,7.19,3.7,10.77,2.45,6.91,6.78,11.6,14.36,13.11,6.7,1.33,13.27,3.28,19.9,4.94s8.53,1.39,12.11-4.66c4.24-7.18,8.71-14.51,11.17-22.37,2.58-8.25,2.89-17.2,4.19-25.84l-1-.26,2.13,2.52c3.49-2.75,5.69-5.69,4.46-10.25l-2.68,4.25-.61-.24c.26-1.54.53-3.08.94-5.46l-8.16,9.15-1.14-1c.29-1.47.92-3,.81-4.4-.22-2.94.2-6.87-1.48-8.58-7.1-7.22-9.81-16.33-12.86-25.94-6,6.68-13.63,10.72-22,13.26-7.54,2.29-15.26,4-22.87,6.06-9.89,2.7-19.75,5.51-31.2,8.71l11.2,14.88c5.27-8.61,12.51-10.71,17.17-5.37-3.09.22-6,.22-8.77.66-3,.49-6.34,2.3-5.27,5.47s3.61,6.24,8.49,5.66Zm38,343.44C349,543,347.85,538,347,532.91c-.48-2.79-1.86-4-4.71-4.46C317.64,524.82,294,517.6,271,508.38c-5.42-2.18-10.88-4.28-15.57-6.12C251,510,247.74,517.62,242.77,524s-11.69,11.44-17.71,17.15c33.77,18.58,68.93,22,105.47,6.85,2.88-1.19,6.46-.9,9.71-.87C342.3,547.12,344.35,547.92,346.49,548.38Zm114.31-9c3.93-3,6.79-4.79,9.18-7.08,3.63-3.46,8-4.5,12.72-5.17,24.71-3.47,47.38-11.86,66.53-28.43A90.56,90.56,0,0,0,567,478.78c-20.29-9.52-38.32-21.27-51.18-39.54-13.29,7-14.53,12.76-5.57,24.53.46.6,1,1.16,1.45,1.76,1.81,2.28,3.68,3.74,6.93,2.26,1.28-.59,3.18.09,4.79.32,2.29.32,4.55,1,6.84,1.08,6.14.13,12.38-.61,17.9,3.18l-5.19-.86,6.58,9.44-1.16.86L540,477.7c1.27,1.95,3.33,3.07,4.2,4.8,1.19,2.35,2.85,6.12,1.85,7.6a37.62,37.62,0,0,1-10.58,10.71c-4.47,2.78-8,.42-9.38-4.74-1-3.93-2.12-7.84-3-11.2-3.14-.42-6.31.11-7.61-1.21-2.92-3-5.17-1.42-7.71-.15-2.3,1.16-4.62,2.33-6.79,3.71-17.25,11-33.28,24-53.7,32.26ZM388.46,418.61a29,29,0,0,0,4.43-17.84c-.21-3.82-.75-7.27-4-10.13s-3.36-6.91-1.78-10.57c1.13-2.64.31-4-1.23-5.93-10-12.65-20.35-25-29.35-38.36-4.7-7-12-8.32-17.51-13l-1.14,1c3.93,9,7.85,18,11.51,26.39-.81.9-1.78,1.51-2,2.34-.59,2-.27,4.56-1.36,6.17-4.58,6.72-2.34,10.59,3.43,15.82,7.22,6.53,12.69,15.05,18.56,23S379.69,413,388.46,418.61ZM472.07,582c.71.2,1.42.43,2.15.59,1.92.42,3.88.71,5.78,1.22,22.68,6.09,43.21,1.46,60.93-13.58,9.67-8.21,18.38-17.62,27-26.94,5.77-6.22,10.48-13.41,16-19.87,9.48-11.09,19.8-21.18,34.47-25.71-6.92-.19-13.86-.61-20.3,1-10.93,2.68-19.35,10-27,18-12,12.51-23.32,25.65-35.66,37.77a118.23,118.23,0,0,1-23.62,18.28C499.72,579.59,486,582.06,472.07,582Zm44.18,4.24.24,1.29c5.59,0,11.27-.63,16.76.13,11.27,1.57,19.71-3.39,27.37-10.6,3.54-3.33,7.22-6.64,10.13-10.5,8.15-10.8,16-21.83,23.84-32.87C602.13,523,611,513.82,623.4,509.26c6.91-2.55,14.54-3.17,21.66-4.62-9.13-5.09-19-8.16-29.73-3.28a77.48,77.48,0,0,0-13.12,7.24c-11.88,8.55-20.42,20.3-29.38,31.65C557.42,559.78,540.28,577.24,516.25,586.2Zm-92.82,12.06c-3.51-6.64-6.82-12.29-9.49-18.22-1.29-2.86-2.74-3.15-5.54-3-8,.5-16.17,1.59-24,.52-14.52-2-29-5-43.22-8.38-6.25-1.51-10.67.45-16.39,4C354.91,594,386.71,604,423.43,598.26ZM227,567.47c16.73,20.06,39.1,28.6,64.43,30.09,17.49,1,34.58-1.39,50.59-9.61-5.73-4.65-10.7-8.89-15.94-12.77a6.39,6.39,0,0,0-5.13-1c-21.42,8-43.27,8-65.13,2.94C246,574.85,236.62,570.76,227,567.47ZM500.71,449.61c-4.87,2.9-10.84,6.21-16.55,9.92-14,9.1-28.12,18.05-41.68,27.78-4.67,3.35-7.82,8.83-11.67,13.34l1.2,1.27c18.9-3.24,35.88-11.67,52.77-20.47l-11.51,2.79c11.75-7.49,24.78-7.26,37.85-6.42l2.85-8.15-1.31.64ZM349.34,549.08a137.59,137.59,0,0,0,54.79,5.37c-2.18-8.67-4.31-17.16-6.25-24.86H349.34ZM267.21,415.15a319.54,319.54,0,0,1-57.31-50.49c-3.86-4.33-13.71-4.35-19.26-.06.84,1,1.66,2.1,2.54,3.11,16.76,19.33,36.25,35.55,57.17,50.12C256.5,422.12,261.78,421.33,267.21,415.15Zm241,65.24c-8.68-1.68-17.46.72-26.1,5-16.23,8-32.54,15.87-50.75,18.46-.67.09-1.66.5-1.84,1-1.93,5.45-3.72,11-5.84,17.32,2.92-.39,4.27-.45,5.56-.76A133.52,133.52,0,0,0,468.7,505.1C482.1,496.84,495.41,488.42,508.24,480.39Zm-222.64-75c-7.6-3.64-16-6.61-23.26-11.39-10-6.6-19-14.66-28.53-21.9-6.52-4.94-13.72-8.52-22.53-9.69a16.18,16.18,0,0,0,1,1.76C228.4,383.2,247.42,399,267.93,413a3.79,3.79,0,0,0,3.23.26C276.24,410.64,281.2,407.8,285.6,405.37ZM424.37,525.73c-2.73,10.25,2.82,17.15,9.41,23.59a2.58,2.58,0,0,0,2,.67,70.09,70.09,0,0,0,23.44-10.22L445.8,520.09ZM166.51,550.58c18.66,12.68,38.62,18.85,60.55,21-4.41-10.29-14.14-14-21.09-20.49-.63-.59-2-.5-3-.5C191.14,550.57,179.35,550.58,166.51,550.58Zm453.54-80c-10,3.82-20,7.53-29.87,11.41-2.32.91-5.13,1.89-6.48,3.74-2.85,3.87-4.87,8.34-7.12,12.36,9.66-1,19.27-1.89,28.86-2.93a3.93,3.93,0,0,0,2.19-1.45C613.48,486.8,618.08,479.23,620.05,470.56Zm-278.28-101c-4.44,5.08-8,9.33-11.81,13.46-2.78,3.05-2.38,6.82,1.24,8.85,8.28,4.65,16.6,9.22,24.86,13.8a2,2,0,0,0,0-1c-2.7-6.93-3.91-14-2.07-21.38a3,3,0,0,0-.64-2.4C349.57,377.1,345.64,373.36,341.77,369.6ZM187.52,516.81c5.65-5.76,11.75-11.83,17.63-18.11,1.36-1.45,3.18-4.66,2.68-5.26-1.46-1.71-4.17-3.72-6.09-3.45-9.37,1.33-18.3,4-26,10.12-3.89,3.07-4,6.37-1.85,9.91,1.27,2.11,3.69,3.52,5.59,5.25,1-2.35,1.91-4.7,2.7-6.66l.66,1.27L197,501.05l.81,1.16A20,20,0,0,0,187.52,516.81ZM196,347.74c-1.84-2.68-3.48-5.05-5.08-7.43s-3.39-5.06-5.06-7.61c-4.33-6.62-5.88-7.21-13.34-4.59-2.08.74-4,1.84-6.84,3.14l19,27.08ZM394.3,425.13c-18.15-8.52-26.38-26.37-38.51-40.71-3.15,10.54.84,22.61,9.23,28.36a99.58,99.58,0,0,0,9.53,6.2C380.69,422.21,386.89,425.51,394.3,425.13Zm147.16,56.73-10.59-6.4.42-1.07,13.41,2.26c-6.2-5.4-12.71-6.24-19.69-4.39-4.16,1.1-5.74,4.8-3,8,3.82,4.38,5.39,9.29,6,14.84.38,3.5,2.61,4.58,5.87,3.4,5.57-2,9.65-5.46,11.22-11.78L538.44,483ZM183.75,326.62c4.81,7,8.82,13,13.08,18.79.44.61,2.36.32,3.55.14,4-.62,8-1.75,12-2,3.64-.21,7.33.5,11.86.88C213.09,333,200.35,327.46,183.75,326.62Zm139.52,38.13c-5.42-1.26-13.81,3.42-16,8.64-1.91,4.43.76,12,5.9,15.1a9.37,9.37,0,0,0,7.48.43,7.77,7.77,0,0,0,3.92-5.72C324.63,377.24,323.79,371.27,323.27,364.75Zm97.62-77.39a18.49,18.49,0,0,0-3.52,1c-7.59,4.21-11.67,11.26-14.58,19-1,2.54.87,3.84,3.69,3.23a29.67,29.67,0,0,0,18.11-12c1.29-1.79.64-5.45,0-8C424.19,289.13,421.93,288.21,420.89,287.36Zm-17.8,37.38c-7.25,5.45-3.74,11.47.54,17.53.95,1.35,1.6,2.93,2.42,4.38,2.26,4,3.94,4.3,5.82.26,2.77-6,4.83-12.25,7-17.78Zm-14.38,95.45c2.78,0,4.66.6,5.69-.09,9-6,13.65-14.71,15.81-25.22H394.35C395.35,403.56,395.15,411.81,388.71,420.19ZM501.35,544.44c-4.18,0-7.27-.15-10.35,0s-6.53-.21-8.77,1.26c-7.24,4.77-14,10.28-21.26,15.75C477,562.38,488.91,554.28,501.35,544.44ZM379.85,297.55c0,.86-.1,1.21,0,1.45,1.29,2.58,2.58,5.15,3.93,7.7,3.14,5.92,3.89,6.26,10.7,4.89a29.56,29.56,0,0,0,4-1c3-1.06,3.46-2.63,1-4.91C394,300.63,387.42,298.37,379.85,297.55ZM271,197.3l.68,1.78a38.78,38.78,0,0,0,22.45-1.94l-5.91-11C282.31,190,276.68,193.67,271,197.3ZM427.17,298.91c-6.31,7.28-13.59,12.3-23.18,14,4.65,4.18,13.29,3.66,19.37-.58C428.53,308.75,429.64,305.21,427.17,298.91ZM340,368.46c-3.9-1.28-6.7-2.23-9.53-3.13-3.07-1-4.75.58-4.89,3.41-.25,4.69-.07,9.4-.07,14.1l2,.59C331.41,378.69,335.37,374,340,368.46Zm67.19,17.68-17.39-6.24c-2.12,3.32-2.44,6.8,2.05,10.12,1.79,1.34,2.72,2.24,5,1C400.47,388.93,404.41,387.4,407.16,386.14ZM295,208.83l20.63,10.71C310.49,210.67,303.08,204.72,295,208.83ZM509.64,399.56c1.84-7.47,5.55-14.47,2.93-22.78-1.38,1.1-3.14,1.81-3.27,2.74A146.66,146.66,0,0,0,508,394.76C507.91,396.34,509.05,398,509.64,399.56ZM313.39,393c-2.78-3.95-5.28-7.52-7.79-11.08l-1.47.46c1.62,5.58,3.23,11.16,5.05,17.43,2.21-1.95,3.3-3,4.49-3.94s2.49-1.76,3.74-2.63l-1.19-1.32Zm208.93,76c-1.46.3-4.92.14-5.43,1.29a23,23,0,0,0-1.55,9.77c0,1,2.87,1.86,3.58,2.28C520.08,477.82,521,474,522.32,469Zm-16.81-70.71c1-6.07,1.78-11.18,2.72-17.05C500.9,384.89,500.28,389.41,505.51,398.33ZM402.43,311.59l-14.4,2.6c.68,5.56,4.63,4,8.05,3.17C399.21,316.61,403.11,316.35,402.43,311.59ZM209.57,497.5l1.45.74c.9-2.11,3-4.63,2.44-6.25a13.35,13.35,0,0,0-5.51-6.42c-1.29-.8-3.88.5-5.88.85l.22,1.22C209.08,489.31,210.54,491.28,209.57,497.5ZM348.71,325.75l1-1.23-17.74-13.77C335,318.75,342.16,321.94,348.71,325.75ZM519,395.66c6.22-9.58,7.54-13.56,2.29-17.25Zm-120.88-4.37.52,1.33a91.33,91.33,0,0,0,9.51-.12c1-.1,1.86-1.62,2.79-2.49-1.11-.65-2.38-2-3.29-1.82A95.4,95.4,0,0,0,398.15,391.29Zm27-4.09-.12-1.08H412.63l1.23,5.52Zm-34.55-66.74c1.46,1.36,2.75,3.5,3.84,3.41,3.56-.31,6.08-2.54,7.6-6.31Zm-79.32-100.2-1.13,1.14,8.39,8C319.07,223.34,315.7,221.28,311.31,220.26ZM326,206.77c-3,.92-4.25,3.67-3.29,7.28.86,3.25,3.5,4.5,6.71,4,4.1-.7,5.18-3.52,4.9-6-1.71,1.34-3.61,3.36-5.95,4.37-1,.41-4.13-1.4-4.1-2.13C324.35,211.63,325.38,209.09,326,206.77Zm93.76,144.77-3.76-7.1-4.17,5.71ZM316.2,207.94l4.52,7.57c.31-3,.59-5.74.91-8.89Z" transform="translate(-31 62)"/><path d="M588.84,652.81l-5.43.88c-.24-1.73-.48-3.4-.71-5.07l1.09-1.14,6,4.16Z" transform="translate(-31 62)"/><path d="M515.2,399.36c1.31-.79,1.94-3.6,4.35-1.46a8.36,8.36,0,0,0,2.69-2.6c1.61-3.26,2.91-6.67,4.58-10.6,3.54,2.69,7.12,5.14,10.34,8a6.62,6.62,0,0,1,1.57,4.45c.18,11.13-5.15,19.84-12.68,27.38-12.34,12.36-27,21.53-41.71,30.77-12.47,7.85-24.91,15.8-37,24.23-20.55,14.32-30.34,42-24,66.26a8.83,8.83,0,0,1,.27,4.79c-1.75-3.77-3.62-7.48-5.2-11.31-1.79-4.36-3.24-8.85-5-13.22-.39-1-1.53-2.3-2.3-2.28a3.34,3.34,0,0,0-2.42,2.19c-.94,6.1-1.64,12.25-2.33,18.39-.16,1.5,0,3-1,4.8-1.68-7.23-4-14.37-4.94-21.68-4.25-32.08-.1-62.75,16-91.33,11.12-19.73,27.32-33.57,47.91-42.53a10.55,10.55,0,0,0,4.16-2.88c-2.77,1-5.63,1.91-8.31,3.14-27.35,12.62-45.44,33.79-55.08,62-2.51,7.33-6.74,10.7-13.34,12.36-7.94,2-15.9,2.25-23.76-.71-20.09-7.56-40.52-13.82-61.9-16.65a7.66,7.66,0,0,1-5.16-4.05c-5.95-15.39-3.73-29.56,7.19-42.13,2.2-2.53,4.77-4.76,6.75-7.43,3.72-5,8.45-5.89,13.5-3,10.4,5.92,20.49,12.38,30.82,18.43,8.23,4.82,16.48,9.64,25,13.88,2.8,1.39,6.49,1.17,9.79,1.29,1.34.05,2.71-.95,4.07-1.48-.56-1.29-1.11-2.59-1.5-3.49,4.11-4.95,8.58-9.89,12.47-15.24a17.56,17.56,0,0,0,3.5-8.78c.21-4.07,2.59-5.07,5.42-6.77,10.24-6.17,21.35-7.19,32.9-6.67,6.38.29,12.81-.27,19.18.16,5.23.35,10.38,2,15.62,2.35,4.84.34,9.74-.24,14.45-.41.68,2.74,1.1,6.44,2.52,9.71,2,4.59,9.57,5.57,12.69,2Z" transform="translate(-31 62)" style="fill:#fff"/><path d="M499.16,129.72h18.42l.75-1.4c-1.21-1.52-2.19-3.33-3.68-4.51-8.82-7-18.91-6.32-29.13-4.54a5.45,5.45,0,0,1-2.91.14l12.87-9.23c-7.67-2.77-13.23-.19-19,2.06l5.13-4.52-.56-1.57c-2.64.7-5.83.69-7.82,2.23a177.86,177.86,0,0,0-16,14.11c-6.7,6.62-12.95,13.71-19.58,20.41-5,5-10,5.78-16.32,3.31V61.54c9.18,1.34,17.92,2.1,26.41,4,36.6,8,60.78,30.09,73,65.52,2.6,7.54,4.17,15.63,10.14,21.68.74.74.64,2.58.5,3.87C526.1,204.19,516.79,251,501,296.3c-6.19,17.76-14.27,34.87-21.52,52.26a40.24,40.24,0,0,1-2.06,3.68l-16-8.39c-2.56-1.33-5-3.24-7.73-3.84-5.92-1.3-8.17-5-9.34-10.57-1-4.85-3.11-9.48-4.75-14.28,20.52-15.76,25-37.69,23.59-61.62-.43-7.3,1.31-13.3,6.71-17.93,8.18-7,16.5-13.86,25-20.44,8.35-6.46,16.58-13,22.09-22.17,9.54-15.77,10.47-32.24,1.9-48.65-4.08-7.81-10.58-13.3-19.79-14.67Z" transform="translate(-31 62)" style="fill:#fff"/><path d="M538.26,347.77l-8.5,9.43c-6.1-6.07-12.78-4.4-18.81,0-8.67,6.33-16.8,5.12-25.12-.31-2-1.31-4.17-2.38-6.62-3.76C511.59,291,525.12,224,533.86,154c6.58,5.45,13,9.79,18.23,15.26,20.25,21.13,28.59,46.41,25.54,75.63-3.89,37.22-17,70.78-38.88,101a7.16,7.16,0,0,0-.65,2.07Z" transform="translate(-31 62)" style="fill:#fff"/><path d="M417.05,145.6c-5.14-3.45-10.23-6.73-15.17-10.22s-9.93-6.47-16.27-6.19a3.35,3.35,0,0,1-2.39-.89c-7.4-8.38-17.54-10.2-27.72-10.78-9.34-.54-18.77.53-28.16.65-3.45,0-6.92-1-10.35-.85-4.59.22-9.15,1.12-14.77,1.86-3.06-9.31-6.52-19.48-9.73-29.73-1.68-5.37-3-10.84-4.25-16.33a6.52,6.52,0,0,1,.66-4.63c15.41-22.35,36.53-35.06,63.8-35.67,17.58-.39,33.1,6.87,47.54,16.42,5.71,3.77,11.41,7.55,17,11.43a4.52,4.52,0,0,1,1.93,2.73c2.48,27.06,2.56,54.09-1.35,81C417.84,144.58,417.7,144.69,417.05,145.6Z" transform="translate(-31 62)" style="fill:#fff"/><path d="M200.26,187.07c-.81-1.95-1.29-4.12-2.47-5.8-3.57-5.08-3.37-10.29-1.8-16,9.17-33.4,29.6-57.79,59.35-74.68,5.25-3,11.12-4.86,16.53-7.59,4.79-2.41,9.33-5.3,14.39-8.23.18.47.82,1.87,1.29,3.33,4.32,13.61,8.6,27.24,12.93,40.84,1,3.3-.84,6.64-4.43,6.56-13.93-.34-21.66,7.94-27.15,19.29a64.77,64.77,0,0,0-4.37,11.48c-3.52,13.17-6.8,26.41-10.1,39.65a20.09,20.09,0,0,0-.36,4.53c-.06,8.22,2.35,11.29,10.61,11.38,5.83.07,11.7-1.17,17.51-2.09,5.23-.82,8.23.21,9.78,5.39,3.9,13,1.82,24.25-12.94,29.41-4.86,1.69-10.07,2.36-15,3.93-6.14,2-12.14,4.4-18.77,6.84-9.2-9.37-16.84-21.26-24.12-33.39-6.42-10.69-12.57-21.54-18.87-32.3a22.2,22.2,0,0,0-2.19-2.69Z" transform="translate(-31 62)" style="fill:#fff"/><path d="M200.1,186.92a11.4,11.4,0,0,0,.68,2.52c12.93,23.7,26.06,47.27,43.59,67.95-.5,1.29-1,2.49-1.4,3.68l.16-.17C241,266.62,236,271.24,236.52,278c.2,2.73,1.86,2.91,3.78,1.75a42.1,42.1,0,0,0,4.36-3.51c-1.52,11.1,4,18,11.78,23.93a24.88,24.88,0,0,1,9.73,14.48c1.15,5.12-.86,10.84-4.77,13.32-4.28,2.72-7.87.4-11.36-1.83-8.31-5.32-12.38-13.95-17-22.16-7.9-14.12-23.95-20.76-38.05-14.42-7.29,3.28-13.44,9.11-20,13.9-.77.56-1,1.85-1.83,3.48a106.46,106.46,0,0,1-12.79-34.18c-3.08-15.47-3.83-31.13,2.56-45.79,4.08-9.35,10.33-17.78,15.93-26.42,4.9-7.58,10.24-14.87,15.33-22.2l6.07,8.75Z" transform="translate(-31 62)" style="fill:#fff"/><path d="M411.9,575.17a164.85,164.85,0,0,1-55.79-4.61c-12.12-3-23.86-5.84-35.34,1.62-37.2,10.72-72.47,6.6-104.45-15.68-8.18-5.7-15.8-7.78-25.38-7.64-23.7.33-45.91-6.27-67-16.83a46.19,46.19,0,0,1-8.36-5.49c-9.72-7.89-11.74-15.87-7.12-27.43,4.94-12.37,13.28-22.14,23.67-30.16,23.78-18.36,49.55-33,78.73-40.92,14.42-3.93,29.09-6.44,44.12-6.11,1.14,0,2.28.16,3.42.24l1.15,1.49c-4.15,3.7-8.24,7.48-12.52,11-.93.78-2.5.9-3.81,1.09-39.48,5.78-74.33,22-105.31,46.9a37,37,0,0,0-5.63,6c-9.73,12.34-7.79,24.43,5.48,33a78,78,0,0,0,34.15,11.86c11.87,1.28,23.92.84,35.86,1.69a23.28,23.28,0,0,1,10.8,3.66c32.88,22,68,26.59,105.2,13.57,8.16-2.86,15.47-3.89,24-1.19a135.53,135.53,0,0,0,46.81,6.09c1.21-.06,2.43-.1,3.63-.23,7.79-.85,8.07-.72,10.46,6.74C409.87,567.39,410.76,571.06,411.9,575.17Z" transform="translate(-31 62)" style="fill:#fff"/><path d="M438.24,553c9.49-5.25,19.41-9.64,28-15.83,7.26-5.22,14.55-7.88,23.34-9.35,34.32-5.73,62.57-21.71,81.84-51.71a10.87,10.87,0,0,1,5.43-4,104,104,0,0,0,35.89-20.26,6.66,6.66,0,0,0,.67-.63c11.17-12.82,9.8-20.33-1.07-29.5-13.52-11.41-29.82-17.45-46.76-21.55-8.06-2-16.39-2.79-24-4-.16-3.24-.34-6.87-.53-10.8l4.41.54c-.11-2-.2-3.73-.35-6.57,12.65,3.61,25.09,6.76,37.26,10.74,16,5.22,31.22,12.22,44.33,22.89A69.28,69.28,0,0,1,640,427.83c4.64,6.83,3.58,14-.9,20.95-5.52,8.53-13.71,13.8-22.3,18.39a254.47,254.47,0,0,1-24.33,11.31c-6.62,2.69-11.93,6.47-15,13-2.93,6.15-7.5,9.94-14,12.66-18.23,7.62-33.94,19.56-49.49,31.51-6.21,4.77-12.39,7.78-20.32,6.75s-14.77,1.22-20.69,7.07c-3.29,3.23-7.78,5.24-11.71,7.83-5.56,3.67-11.1,3.51-16.61-.07C442.18,555.74,439.87,554.13,438.24,553Z" transform="translate(-31 62)" style="fill:#fff"/><path d="M308.5,204.94l3.71,1.82c-4.88.58-7.46-2.59-8.49-5.66s2.24-5,5.27-5.47c2.8-.44,5.68-.44,8.77-.66-4.66-5.34-11.9-3.24-17.17,5.37l-11.2-14.88c11.45-3.2,21.31-6,31.2-8.71,7.61-2.07,15.33-3.77,22.87-6.06,8.34-2.54,16-6.58,22-13.26,3.05,9.61,5.76,18.72,12.86,25.94,1.68,1.71,1.26,5.64,1.48,8.58.11,1.44-.52,2.93-.81,4.4l1.14,1,8.16-9.15c-.41,2.38-.68,3.92-.94,5.46l.61.24,2.68-4.25c1.23,4.56-1,7.5-4.46,10.25L384,197.33l1,.26c-1.3,8.64-1.61,17.59-4.19,25.84-2.46,7.86-6.93,15.19-11.17,22.37-3.58,6-5.41,6.34-12.11,4.66s-13.2-3.61-19.9-4.94c-7.58-1.51-11.91-6.2-14.36-13.11-1.27-3.58-2.06-7.37-3.7-10.77-1.89-3.93-4.47-7.53-7.59-12.65,2.14,1.09,3.57,1.37,4.24,2.24a34.91,34.91,0,0,1,3.48,5.87c2.13,4.33,5.41,4.68,9.33,2.86,2.72-1.26,5.38-2.64,8.79-4.33,0,3.07-.48,6.08.1,8.86,1.26,5.93,2.93,6.56,9.29,4-1.72-.53-3.48-.55-4.39-1.45-1.55-1.54-3.81-3.76-3.61-5.45,1.12-9.46-2.32-16-11-19.84-2-.89-3.72-2.42-6.08-3.05l5.43,4.91-.32.83-8.93-3.41c.08.45.19,1.14.41,2.54l-6.15-3.45,3.05,5.36L309.29,204Zm33.73-15c2.46,1.39,5.13,2.07,6.4,3.78,2.65,3.59,4.57,7.73,7.25,12.45,3.71-2.29,7.48-3.83,10.11-6.49s4-6.37,5.93-9.63c-3.57-1.72-7.14-3.47-10.72-5.18-1.95-.93-3.92-1.81-5.88-2.69a4.57,4.57,0,0,0-1.06-.14l1.22,4.88-7.9-4.33,3.21,4.68-.48.89-8.16-2.52,3.37,3.77Zm-3.79,46-1,2.88a61.68,61.68,0,0,1,7.1,1.29c11,3.44,16.17,1.32,21.37-9,1-2,1.71-4.24,2.81-6.22a20.56,20.56,0,0,1,2.74-3.13c.14-.16.09-.48.16-.86h-4C367,228.59,346.09,239.66,338.44,235.94Zm26.76-59.23c-11.05-9.32-25.89-5.36-28.29,6C344.71,172.48,354.46,172.06,365.2,176.71Z" transform="translate(-31 62)" style="fill:#fff"/><g id="Tail"><path d="M667.17,652.92c-19-12.45-39.33-14.76-60.3-12.35-21.72,2.49-43.29,6.32-65,8.83-41.49,4.78-76.75-8-105.21-38.87-13.89-15.06-23.78-32.26-27.75-52.57-.24-1.19-.44-2.39-.59-3.6-.31-2.55-.58-5.11-.85-7.47,3.25,7.88,5.94,16.19,9.94,23.82,21.5,40.93,60.14,61.87,106.06,57.81,20.13-1.79,40.23-4,60.37-5.58,23.44-1.88,46.08,1.31,67.55,11.49C659.15,638.1,664.05,644,667.17,652.92Z" transform="translate(-31 62)" style="fill:#fff"/><path d="M460.46,600.59c9.08,5.95,19.3,8.7,29.87,9.95,19.74,2.34,39.46.85,59.12-1.37,17.54-2,35.17-4.42,52.68-1.2,11.57,2.13,22.94,5.73,34.13,9.46,7.33,2.44,12.35,8.34,17.3,15.25-6.46-2.39-12.06-4.67-17.78-6.55-16.44-5.39-33.44-6.42-50.51-5.15-20.15,1.51-40.24,3.78-60.36,5.71-64.62,6.18-105-37.35-115.22-83.13a79.83,79.83,0,0,1-1.35-12c5.12,31.17,23.09,52.86,49.73,68.26a16.24,16.24,0,0,0,2.53.94Z" transform="translate(-31 62)" style="fill:#fff"/><path d="M472.07,582c13.95.1,27.65-2.37,39.81-9.32a118.23,118.23,0,0,0,23.62-18.28c12.34-12.12,23.68-25.26,35.66-37.77,7.63-8,16.05-15.27,27-18,6.44-1.58,13.38-1.16,20.3-1-14.67,4.53-25,14.62-34.47,25.71-5.52,6.46-10.23,13.65-16,19.87-8.66,9.32-17.37,18.73-27,26.94-17.72,15-38.25,19.67-60.93,13.58-1.9-.51-3.86-.8-5.78-1.22C473.49,582.39,472.78,582.16,472.07,582Z" transform="translate(-31 62)" style="fill:#fff"/><path d="M516.25,586.2c24-9,41.17-26.42,56.58-46,9-11.35,17.5-23.1,29.38-31.65a77.48,77.48,0,0,1,13.12-7.24c10.73-4.88,20.6-1.81,29.73,3.28-7.12,1.45-14.75,2.07-21.66,4.62C611,513.82,602.13,523,594.59,533.65c-7.82,11-15.69,22.07-23.84,32.87-2.91,3.86-6.59,7.17-10.13,10.5-7.66,7.21-16.1,12.17-27.37,10.6-5.49-.76-11.17-.13-16.76-.13Z" transform="translate(-31 62)" style="fill:#fff"/><path d="M460.6,600.74c-5.44-4-11.1-7.7-16.29-12-17.54-14.45-30-32.1-33.53-55.15-.34-2.2-.37-4.46-.49-6,2,6.8,3.33,14.57,6.57,21.44,7.23,15.33,18.24,27.47,33.66,35.15l-.16-.16c5.67,3,11.07,6.76,17,9,16.86,6.33,34.61,6.05,52.25,5.65,18.85-.44,37.68-1.69,56.51-1.76,18.21-.06,35.36,5.29,51.87,12.69a10.34,10.34,0,0,1,3.86,3.33c-5-1.4-9.86-3-14.85-4.17-19.94-4.91-40.1-4-60.32-2.24-17.26,1.49-34.54,3.1-51.84,3.67a84.82,84.82,0,0,1-41.47-8.9,13.45,13.45,0,0,0-2.94-.72Z" transform="translate(-31 62)" style="fill:#fff"/><path d="M552.59,516.39c2.89-2.11,6.07-3.92,8.62-6.38,8.28-8,18.72-10.12,30.42-11.83-4.73,3.17-9.19,5.3-12.53,8.58-9.42,9.26-18.27,19.1-27.54,28.51s-17.9,19.23-28,27.41c-19.82,16.07-42.81,20.65-67.36,13.83-10.81-3-19.64-10.19-26.93-18.87-1.06-1.27-1.37-3.18-2.17-5.14,5.51,4.6,10.18,9.45,15.69,13,17.56,11.16,35.56,9.66,53.22.2,15.49-8.29,27.11-21.46,40.08-32.92,5.24-4.63,10.26-9.52,15.33-14.34a9.89,9.89,0,0,0,1.34-2.17Z" transform="translate(-31 62)" style="fill:#fff"/><path d="M450.52,584.2c-1.94-1.61-3.8-3.33-5.85-4.79-13.45-9.64-23.83-21.62-29-37.63-.32-1-.59-2-.82-3.07a18.73,18.73,0,0,1,0-2.47c4.2,10.46,8.95,19.36,16.43,26.4,14,13.15,30.9,20.43,49.65,23,13.36,1.8,26.9,2.42,40.38,3.12,20.47,1.07,41,1.37,61.42,2.76,9.74.67,19.09,4,29,8.72-9.5-1.63-17.81-4-26.2-4.28-16.05-.51-32.16-.22-48.22.45-24.57,1-49.18,3.1-72.86-6.07-4.77-1.85-9.36-4.17-14-6.27Z" transform="translate(-31 62)" style="fill:#fff"/><path d="M552.76,516.22c-6.92,6.09-13.71,12.33-20.79,18.24-12,10-23.16,21.53-36.49,29.3-23.68,13.8-52.32,9.69-68.87-17.11a27.26,27.26,0,0,1-1.33-3c1,.52,1.4.6,1.61.85,18.29,22,40.91,25.51,64.86,9.26,13.57-9.2,26.39-19.5,39.85-28.89,7.7-5.38,16-10,24-14.81a9,9,0,0,1,4.9-1.28l-7.94,7.6Z" transform="translate(-31 62)" style="fill:#fff"/></g><path d="M216.66,488.71,213,486.8c11.77-16.61,22.64-32.91,34.52-48.42,10.57-13.79,23.46-25.3,40.25-31.11,4.63-1.6,10-1.06,16.28-1.62-9.14,14.64-12,28.79-4.69,44.48-16.27-.79-31.83.26-45.82,8.87,5.26-1.63,10.45-3.59,15.81-4.83,20.69-4.78,41.12-2.52,61.24,3.24,11.24,3.22,22.51,6.55,33.39,10.79,12.26,4.78,24.15,5,36,.21-1.64,13-3.29,26-5,39.57-28.35,4.58-56.88,2.93-85-6.65q-26.27-9-53-16.52A58.74,58.74,0,0,0,222,486a38.9,38.9,0,0,0-5.49,2.88Z" transform="translate(-31 62)" style="fill:#fff"/><path d="M216.51,488.85c19.49-6.36,38.7-4.14,57.74,2,15.88,5.12,31.58,10.86,47.58,15.6,23,6.8,46.46,6.89,70,3.49,1.18-.17,2.37-.31,4.1-.54.51,5.62,1,11,1.57,17.38-13.69,0-27,.65-40.31-.13-28.43-1.68-55.74-8.74-82.26-19-9.9-3.82-19.69-8-29.6-11.77-9.52-3.66-19.29-6.2-30.08-4.92.65-1.07,1-1.66,1.38-2.26Z" transform="translate(-31 62)" style="fill:#fff"/><path d="M500.71,449.61l11.95,20.7,1.31-.64-2.85,8.15c-13.07-.84-26.1-1.07-37.85,6.42l11.51-2.79c-16.89,8.8-33.87,17.23-52.77,20.47l-1.2-1.27c3.85-4.51,7-10,11.67-13.34,13.56-9.73,27.68-18.68,41.68-27.78C489.87,455.82,495.84,452.51,500.71,449.61Z" transform="translate(-31 62)" style="fill:#fff"/><path d="M508.24,480.39c-12.83,8-26.14,16.45-39.54,24.71a133.52,133.52,0,0,1-39.43,16.28c-1.29.31-2.64.37-5.56.76,2.12-6.36,3.91-11.87,5.84-17.32.18-.5,1.17-.91,1.84-1,18.21-2.59,34.52-10.47,50.75-18.46C490.78,481.11,499.56,478.71,508.24,480.39Z" transform="translate(-31 62)" style="fill:#fff"/><path d="M285.6,405.37c-4.4,2.43-9.36,5.27-14.44,7.89a3.79,3.79,0,0,1-3.23-.26c-20.51-14.05-39.53-29.8-55.67-48.85a16.18,16.18,0,0,1-1-1.76c8.81,1.17,16,4.75,22.53,9.69,9.56,7.24,18.55,15.3,28.53,21.9C269.57,398.76,278,401.73,285.6,405.37Z" transform="translate(-31 62)" style="fill:#fff"/><path d="M253.33,501.43c-6,14.86-14,27.29-27.37,35.59-2.75,1.71-5.13,2-7.82-.28A16.07,16.07,0,0,0,206.45,533c-21.43.88-42.59-.8-62.14-10.73a60.06,60.06,0,0,1-13.11-9.59c-3.49-3.22-3.87-7.7-2.3-12.29,2.41-7.05,7.14-12.43,12.72-16.95,29.52-23.93,62.86-39.49,100.54-45.33a4.81,4.81,0,0,1,1.26.27,24,24,0,0,1-1.34,2.64q-13.1,19.2-26.26,38.35c-2.12,3.08-4.53,5.58-9,4.25-1.46-.43-4.39.26-4.93,1.32-2.25,4.41-6.39,4-10.09,4.84-7.72,1.79-14.76,4.73-19.4,11.65-3.54,5.27-1,14.05,4.94,16,1.34.44,3.57-.39,4.8-1.37,2-1.58,3.48-3.77,5.23-5.75l-1.74,12.45,1,.19c5-6,10-12,15.11-18,2.06-2.39,4.08-4.52,8-4.4,1.69.05,4.13-2.48,5-4.4,1.07-2.21,2.34-2.59,4.41-2.84,9.4-1.1,18,1.83,26.58,5C248.15,499.23,250.49,500.27,253.33,501.43Z" transform="translate(-31 62)" style="fill:#fff"/><path d="M517.21,437.75c13.61-10,22.74-22.22,23.63-40.51C552,400,562.7,402.09,573,405.39c13.6,4.35,26.89,9.7,38.37,18.57,9.61,7.42,10.46,14.18,2.48,23.47-7.68,8.94-17.76,14.65-28.42,19.33-3.47,1.52-7.09,2.72-10.57,4.22-1.35.59-3.15,1.32-3.67,2.47-1.87,4.17-4.46,3.52-7.66,1.87-16.11-8.27-30.72-18.51-42.56-32.39C519.72,441.44,518.67,439.76,517.21,437.75Z" transform="translate(-31 62)" style="fill:#fff"/><path d="M346.49,548.38c-2.14-.46-4.19-1.26-6.25-1.28-3.25,0-6.83-.32-9.71.87-36.54,15.11-71.7,11.73-105.47-6.85,6-5.71,12.7-10.77,17.71-17.15s8.26-14,12.63-21.71c4.69,1.84,10.15,3.94,15.57,6.12,23,9.22,46.67,16.44,71.28,20.07,2.85.42,4.23,1.67,4.71,4.46C347.85,538,349,543,346.49,548.38Z" transform="translate(-31 62)" style="fill:#fff"/><path d="M460.8,539.38l-13.52-19.9c20.42-8.27,36.45-21.26,53.7-32.26,2.17-1.38,4.49-2.55,6.79-3.71,2.54-1.27,4.79-2.8,7.71.15,1.3,1.32,4.47.79,7.61,1.21.92,3.36,2,7.27,3,11.2,1.35,5.16,4.91,7.52,9.38,4.74a37.62,37.62,0,0,0,10.58-10.71c1-1.48-.66-5.25-1.85-7.6-.87-1.73-2.93-2.85-4.2-4.8l8.34,4.11,1.16-.86L543,471.51l5.19.86c-5.52-3.79-11.76-3.05-17.9-3.18-2.29,0-4.55-.76-6.84-1.08-1.61-.23-3.51-.91-4.79-.32-3.25,1.48-5.12,0-6.93-2.26-.47-.6-1-1.16-1.45-1.76-9-11.77-7.72-17.49,5.57-24.53,12.86,18.27,30.89,30,51.18,39.54a90.56,90.56,0,0,1-17.76,19.92c-19.15,16.57-41.82,25-66.53,28.43-4.76.67-9.09,1.71-12.72,5.17C467.59,534.59,464.73,536.39,460.8,539.38Z" transform="translate(-31 62)" style="fill:#fff"/><path d="M349.34,549.08V529.59h48.54c1.94,7.7,4.07,16.19,6.25,24.86A137.59,137.59,0,0,1,349.34,549.08Z" transform="translate(-31 62)" style="fill:#fff"/><path d="M424.37,525.73l21.43-5.64,13.41,19.68A70.09,70.09,0,0,1,435.77,550a2.58,2.58,0,0,1-2-.67C427.19,542.88,421.64,536,424.37,525.73Z" transform="translate(-31 62)" style="fill:#fff"/><path d="M340.19,374.52c3.34,3.24,6.74,6.47,10,9.8a2.58,2.58,0,0,1,.56,2.07c-1.6,6.38-.55,12.48,1.78,18.47a1.61,1.61,0,0,1,0,.85c-7.13-3.95-14.32-7.9-21.48-11.92-3.12-1.75-3.46-5-1.07-7.64C333.23,382.58,336.35,378.9,340.19,374.52Z" transform="translate(-31 62)" style="fill:#fff"/><path d="M538.1,347.93a62.89,62.89,0,0,0,4.6-5.36c16.47-24.11,29.07-49.91,34.23-78.95,3.74-21,5.16-42-1.73-62.74-5.84-17.64-15.85-32.41-31.48-42.43-10.37-6.65-16.23-15.18-19.62-27-8.19-28.58-26.05-49.51-53.17-62.07C456.82,62.86,441.73,60,426.34,59A24,24,0,0,1,413,54.12c-12.29-9-25-17.23-40-21.34-32.5-8.93-58.78,1.33-80.61,25.72a4.3,4.3,0,0,0-.79,1.12C285.86,73.46,273.75,78.89,261,84.69c-33.76,15.39-56.89,41.1-66.55,77.15-3.69,13.78-9.09,25.63-18,36.58-11,13.46-19.16,28.58-20.23,46.56-.94,15.92,2,31.22,7.76,46,1.61,4.11,3,8.4,5.13,12.19,3.45,6.06.08,10.7-2.52,15.49-1.06,1.95-3,3.43-5,5.73-1.9-3.32-3.74-6.36-5.4-9.49-10.29-19.41-17.79-39.78-19.07-61.89-1.3-22.4,7.35-41.25,22.4-57.43,1.14-1.22,2.3-2.44,3.55-3.55,9.18-8.15,13.95-18,16.33-30.42,8.14-42.48,31.94-73.28,72.1-90.53,4.72-2,9.86-3.07,14.64-5,3.92-1.57,7.73-3.62,8.86-8.34l-.16.17c2.78-3.32,5.7-6.54,8.32-10C294.39,33.12,308,21.29,325.61,14.63,345,7.31,364,9,382.85,16.83,394.54,21.7,404.69,29,414.06,37.18c7.87,6.89,16.78,9.13,26.71,9.79,18,1.19,35,5.6,50.48,15.42,22.94,14.59,39,34.52,47.33,60.52,1.07,3.32,1.69,7,3.5,9.84,2.19,3.51,4.82,7.52,8.3,9.3,22.69,11.62,35.94,30.39,42.4,54.47,6.64,24.81,4.3,49.53-1.2,74.18-6.45,28.89-19,55.19-34.44,80.16-4.31,6.95-9.68,13.25-14.64,19.95l-11-12c2.27-3.68,4.54-7.34,6.8-11Z" transform="translate(-31 62)" style="fill:#fff"/><path d="M267.21,415.15c-5.43,6.18-10.71,7-16.86,2.68-20.92-14.57-40.41-30.79-57.17-50.12-.88-1-1.7-2.07-2.54-3.11,5.55-4.29,15.4-4.27,19.26.06A319.54,319.54,0,0,0,267.21,415.15Z" transform="translate(-31 62)" style="fill:#fff"/><path d="M196,347.74l-11.37,10.59-19-27.08c2.8-1.3,4.76-2.4,6.84-3.14,7.46-2.62,9-2,13.34,4.59q2.51,3.82,5.06,7.61C192.48,342.69,194.12,345.06,196,347.74Z" transform="translate(-31 62)" style="fill:#fff"/><path d="M187.52,516.81a20,20,0,0,1,10.27-14.6l-.81-1.16-14.14,8.83-.66-1.27c-.79,2-1.74,4.31-2.7,6.66-1.9-1.73-4.32-3.14-5.59-5.25-2.14-3.54-2-6.84,1.85-9.91,7.7-6.08,16.63-8.79,26-10.12,1.92-.27,4.63,1.74,6.09,3.45.5.6-1.32,3.81-2.68,5.26C199.27,505,193.17,511.05,187.52,516.81Z" transform="translate(-31 62)" style="fill:#fff"/><path d="M541.46,481.86l-3,1.1,6.71,3.75c-1.57,6.32-5.65,9.78-11.22,11.78-3.26,1.18-5.49.1-5.87-3.4-.61-5.55-2.18-10.46-6-14.84-2.79-3.19-1.21-6.89,3-8,7-1.85,13.49-1,19.69,4.39l-13.41-2.26-.42,1.07Z" transform="translate(-31 62)" style="fill:#fff"/><path d="M183.75,326.62c16.6.84,29.34,6.39,40.51,17.83-4.53-.38-8.22-1.09-11.86-.88-4,.23-8,1.36-12,2-1.19.18-3.11.47-3.55-.14C192.57,339.6,188.56,333.6,183.75,326.62Z" transform="translate(-31 62)" style="fill:#fff"/><path d="M388.71,420.19c6.44-8.38,6.64-16.63,5.64-25.31h15.86c-2.16,10.51-6.8,19.24-15.81,25.22C393.37,420.79,391.49,420.19,388.71,420.19Z" transform="translate(-31 62)" style="fill:#fff"/><path d="M423.43,598.26c-36.72,5.76-68.52-4.29-98.65-25,5.72-3.59,10.14-5.55,16.39-4,14.26,3.43,28.7,6.38,43.22,8.38,7.84,1.07,16,0,24-.52,2.8-.18,4.25.11,5.54,3C416.61,586,419.92,591.62,423.43,598.26Z" transform="translate(-31 62)" style="fill:#fff"/><path d="M227,567.47c9.65,3.29,19,7.38,28.82,9.66,21.86,5.11,43.71,5,65.13-2.94a6.39,6.39,0,0,1,5.13,1c5.24,3.88,10.21,8.12,15.94,12.77-16,8.22-33.1,10.64-50.59,9.61C266.07,596.07,243.7,587.53,227,567.47Z" transform="translate(-31 62)" style="fill:#fff"/><path d="M166.51,550.58c12.84,0,24.63,0,36.42,0,1,0,2.41-.09,3,.5,6.95,6.54,16.68,10.2,21.09,20.49C205.13,569.43,185.17,563.26,166.51,550.58Z" transform="translate(-31 62)" style="fill:#fff"/><path d="M620.05,470.56c-2,8.67-6.57,16.24-12.42,23.13a3.93,3.93,0,0,1-2.19,1.45c-9.59,1-19.2,2-28.86,2.93,2.25-4,4.27-8.49,7.12-12.36,1.35-1.85,4.16-2.83,6.48-3.74C600.06,478.09,610,474.38,620.05,470.56Z" transform="translate(-31 62)" style="fill:#fff"/><path d="M501.35,544.44c-12.44,9.84-24.34,17.94-40.38,17,7.27-5.47,14-11,21.26-15.75,2.24-1.47,5.8-1.08,8.77-1.26S497.17,544.44,501.35,544.44Z" transform="translate(-31 62)" style="fill:#fff"/><path d="M271,197.3c5.64-3.63,11.27-7.27,17.22-11.12l5.91,11a38.78,38.78,0,0,1-22.45,1.94Z" transform="translate(-31 62)" style="fill:#fff"/><path d="M407.16,386.14c-2.75,1.26-6.69,2.79-10.34,4.84-2.28,1.28-3.21.38-5-1-4.49-3.32-4.17-6.8-2.05-10.12Z" transform="translate(-31 62)" style="fill:#fff"/><path d="M394.3,425.13c-7.41.38-13.61-2.92-19.75-6.15a99.58,99.58,0,0,1-9.53-6.2c-8.39-5.75-12.38-17.82-9.23-28.36C367.92,398.76,376.15,416.61,394.3,425.13Z" transform="translate(-31 62)" style="fill:#fff"/><path d="M323,373.61c.41,5.23,1.08,10,1,14.8a6.25,6.25,0,0,1-3.14,4.59,7.55,7.55,0,0,1-6-.34c-4.13-2.46-6.27-8.56-4.74-12.12C312,376.35,318.68,372.6,323,373.61Z" transform="translate(-31 62)" style="fill:#fff"/><path d="M342,367.56l-13.3,15.9-2.1-.62c0-5-.19-10,.07-15,.16-3,1.94-4.66,5.21-3.62C334.88,365.19,337.86,366.2,342,367.56Z" transform="translate(-31 62)" style="fill:#fff"/><path d="M315.1,396.28l2.27-.86,1,1.05c-1,.7-2,1.36-3,2.11s-1.83,1.6-3.61,3.16c-1.45-5-2.75-9.5-4.05-14l1.18-.37Z" transform="translate(-31 62)" style="fill:#fff"/><path d="M522.32,469c-1.28,5-2.24,8.78-3.4,13.34-.71-.42-3.55-1.31-3.58-2.28a23,23,0,0,1,1.55-9.77C517.4,469.18,520.86,469.34,522.32,469Z" transform="translate(-31 62)" style="fill:#fff"/><path d="M209.57,497.5c1-6.22-.49-8.19-7.28-9.86l-.22-1.22c2-.35,4.59-1.65,5.88-.85a13.35,13.35,0,0,1,5.51,6.42c.55,1.62-1.54,4.14-2.44,6.25Z" transform="translate(-31 62)" style="fill:#fff"/><path d="M527,359.53l-.83-1.47c4.34,4.46,9.16,8.56,12.82,13.51,2.38,3.22,3.08,7.68,3.77,12C538.59,374.78,535.36,365.42,527,359.53Z" transform="translate(-31 62)" style="fill:#fff"/><path d="M527,359.53c2.18,3.24,4.66,6.32,6.45,9.76a50.19,50.19,0,0,1,4.6,13.31,43.22,43.22,0,0,0-16.4-23.1c7.08,9.17,14.14,18.36,15.27,30.62-3.11-9.45-7.32-18.13-16.4-24.16,4.53,6.6,8.74,12.75,13,18.89l-1.44,1.2c-1.23-1.13-2.54-2.18-3.66-3.42s-2-2.67-3-4c-5.18-6.87-8.19-7.45-15.24-2.89-3.44,2.22-6.81,4.55-10.28,6.73-5,3.17-10.27,3.57-16.16,2.3a95.08,95.08,0,0,0-18.54-1.84c-17.2-.24-34.41,0-51.61-.16a55.77,55.77,0,0,1-12.68-1.07c-3.2-.78-6.92-2.31-8.9-4.74-10.28-12.6-20.2-25.5-30-38.47-6.69-8.86-13-18-19.49-27-1.32-1.84-2.76-3.6-4.14-5.4l-1.44,1.23,6.54,9.12-1.08,1.08c-2.37-2.25-6.14-4.13-6.85-6.81a245.93,245.93,0,0,1-5.72-29c-1.09-7.91,2.72-14,9-18.85,4-3,7.52-6.62,11.45-9.71a5.49,5.49,0,0,1,4-.62c12.08,2.36,13.66,1.86,19.86-8.89,3.41-5.89,6.19-12.14,9.56-18.84,1,9.44,2,18.37,3,27.3l1.57-.17c-.32-3.66-.65-7.32-.93-10.49,8.14,3.84,16.15,7.65,24.19,11.41,8.3,3.88,13.48,10.19,15.1,19.29.8,4.49,1.76,9,2.19,13.5,1.56,16.22,9.29,30.46,14.18,45.61,1.61,5,4.14,8.14,8.9,10.43,10.26,4.93,20.17,10.61,30.34,15.74,4.72,2.37,9.71,4.19,14.93,6.4-6.57,4.84-13.88,5.59-21.05,4.37-8.18-1.38-16.2-3.86-24.18-6.25-8.72-2.62-17.29-5.72-26-8.51-3.53-1.14-8.81-10.39-7.93-14.1.81-3.39,1.5-6.82,2.35-10.21a5.21,5.21,0,0,1,1.31-2.76c5.4-4.26,6.24-10.2,7.66-16.52s-.44-11.6-1.85-17.23c-1.36-5.46-3.38-6.54-12.17-6.27-.54-3.14-1.1-6.36-1.65-9.59h-.93c.18,2.89.42,5.79.49,8.69,0,1.2.08,2.7-.55,3.57-3.81,5.23-7.82,10.32-11.47,15.08-1.1-2.06-2.63-4.92-4.15-7.78l-1.29.66c.76,1.27,1.53,2.53,2,3.29-5.87-1.45-12-2.86-18-4.55A5.25,5.25,0,0,1,377,293c-2-4.27-3.41-8.85-5.74-12.92a88.47,88.47,0,0,0-9.9-14.56c-4.11-4.68-9.75-6.62-17.22-5C359,261.64,365.71,271,369.88,282.8c6.54,18.53,17.23,34.85,27,51.68,2.14,3.69,4.57,7.21,6.51,11,2,4,5.08,5.69,9.36,6.9,14.6,4.12,29,8.85,43.53,13.29,4.21,1.29,8.45,2.49,12.72,3.56,13.27,3.33,25.16-.56,36.56-7.1,3.95-2.26,8-4.44,12.09-6.38,3.32-1.55,6.7-2.18,8.54,2.31Z" transform="translate(-31 62)" style="fill:#fff"/><path d="M388.46,418.61C379.69,413,373.79,405.3,368,397.47s-11.34-16.45-18.56-23c-5.77-5.23-8-9.1-3.43-15.82,1.09-1.61.77-4.14,1.36-6.17.25-.83,1.22-1.44,2-2.34-3.66-8.39-7.58-17.39-11.51-26.39l1.14-1c5.54,4.71,12.81,6.07,17.51,13,9,13.32,19.39,25.71,29.35,38.36,1.54,2,2.36,3.29,1.23,5.93-1.58,3.66-1.36,7.83,1.78,10.57s3.81,6.31,4,10.13A29,29,0,0,1,388.46,418.61Z" transform="translate(-31 62)" style="fill:#fff"/><path d="M403.09,324.74l15.74,4.39c-2.13,5.53-4.19,11.82-7,17.78-1.88,4-3.56,3.77-5.82-.26-.82-1.45-1.47-3-2.42-4.38C399.35,336.21,395.84,330.19,403.09,324.74Z" transform="translate(-31 62)" style="fill:#fff"/><path d="M515.34,399.21c-3.62-.91-2.31-3.46-2-5.76.85-5.72,1.63-11.46,2.43-17.18l-1.29-.6,5.66-1.78c-1.25,6.81-2.24,12.45-3.31,18.08-.48,2.47-1.11,4.92-1.66,7.38Z" transform="translate(-31 62)" style="fill:#fff"/><path d="M509.64,399.56c-.59-1.6-1.73-3.22-1.68-4.8a146.66,146.66,0,0,1,1.34-15.24c.13-.93,1.89-1.64,3.27-2.74C515.19,385.09,511.48,392.09,509.64,399.56Z" transform="translate(-31 62)" style="fill:#fff"/><path d="M505.51,398.33c-5.23-8.92-4.61-13.44,2.72-17.05C507.29,387.15,506.48,392.26,505.51,398.33Z" transform="translate(-31 62)" style="fill:#fff"/><path d="M519,395.66l2.29-17.25C526.57,382.1,525.25,386.08,519,395.66Z" transform="translate(-31 62)" style="fill:#fff"/><path d="M398.15,391.29a95.4,95.4,0,0,1,9.53-3.1c.91-.21,2.18,1.17,3.29,1.82-.93.87-1.79,2.39-2.79,2.49a91.33,91.33,0,0,1-9.51.12Z" transform="translate(-31 62)" style="fill:#fff"/><path d="M425.18,387.2l-11.32,4.44-1.23-5.52h12.43Z" transform="translate(-31 62)" style="fill:#fff"/><path d="M420.34,287.36c1,.82,3.2,1.72,3.56,3.1.65,2.48,1.27,6,0,7.77a28.8,28.8,0,0,1-17.56,11.63c-2.74.58-4.5-.67-3.58-3.13,2.83-7.51,6.78-14.34,14.14-18.42A18.94,18.94,0,0,1,420.34,287.36Z" transform="translate(-31 62)" style="fill:#fff"/><path d="M379.85,297.55c7.57.82,14.13,3.08,19.6,8.13,2.48,2.28,2,3.85-1,4.91a29.56,29.56,0,0,1-4,1c-6.81,1.37-7.56,1-10.7-4.89-1.35-2.55-2.64-5.12-3.93-7.7C379.75,298.76,379.85,298.41,379.85,297.55Z" transform="translate(-31 62)" style="fill:#fff"/><path d="M427.17,298.91c2.47,6.3,1.36,9.84-3.81,13.45-6.08,4.24-14.72,4.76-19.37.58C413.58,311.21,420.86,306.19,427.17,298.91Z" transform="translate(-31 62)" style="fill:#fff"/><path d="M407.25,320.43l-3.2-4c8.58,3.27,15.9.88,22.85-4.21-.25,5-3.5,8.54-9,8.95-3.54.27-7.18-.58-10.77-.93Z" transform="translate(-31 62)" style="fill:#fff"/><path d="M402.43,311.59c.68,4.76-3.22,5-6.35,5.77-3.42.82-7.37,2.39-8.05-3.17Z" transform="translate(-31 62)" style="fill:#fff"/><path d="M348.71,325.75c-6.55-3.81-13.67-7-16.78-15l17.74,13.77Z" transform="translate(-31 62)" style="fill:#fff"/><path d="M407.09,320.28c4.49,4.08,9.72,3.14,15,2.14-5,6.07-14.61,4.34-18.4-3.72l3.55,1.73Z" transform="translate(-31 62)" style="fill:#fff"/><path d="M390.63,320.46l11.44-2.9c-1.52,3.77-4,6-7.6,6.31C393.38,324,392.09,321.82,390.63,320.46Z" transform="translate(-31 62)" style="fill:#fff"/><path d="M311.31,220.26c4.39,1,7.76,3.08,7.26,9.1l-8.39-8Z" transform="translate(-31 62)" style="fill:#fff"/><path d="M326,206.77c-.61,2.32-1.64,4.86-1.73,7.43,0,.73,3.14,2.54,4.1,2.13,2.34-1,4.24-3,5.95-4.37.28,2.53-.8,5.35-4.9,6-3.21.54-5.85-.71-6.71-4C321.74,210.44,323,207.69,326,206.77Z" transform="translate(-31 62)" style="fill:#fff"/><path d="M295,208.83c8.06-4.11,15.47,1.84,20.63,10.71Z" transform="translate(-31 62)" style="fill:#fff"/><g id="Hair"><path d="M499.08,129.66c6.91,3.37,13.18,7.58,17.29,14.27,9.48,15.46,7,30.56-1.83,45.26C508,200.1,498.36,208,488.27,215.49c-9,6.69-18.19,13.32-24.58,23.07.27-11.52,2.43-22.45,9.32-32.12-4.95,3.91-7.78,9.12-9.83,14.81-3.57,9.86-3.06,20-2.49,30.26,1.2,21.62-3.58,41.43-18.4,58-1,1.12-2.08,2.19-3.42,3.6-4.48-8.45-6.08-17.37-7.66-26.28-.82-4.64-1.14-9.39-2.22-14-2.5-10.7-8.28-18.57-19-22.71-6.87-2.66-13.37-6.41-19.77-10.13-1.54-.89-2.73-3.58-2.87-5.53-.7-10-1-20-1.38-30A4.57,4.57,0,0,1,387,201.8c2.61-3.35,5.33-6.61,8.58-10.61,13.23,3.87,27.39,8.69,35.43,23.17,7.81,14.06,6.06,28.67,2,43.39,9.11-15.84,8.58-42.66-10.07-57.69-6.59-5.31-14.31-7.75-22.05-10.51-7-2.48-13.73-5.53-20.44-8.62-1.84-.84-3.19-2.73-4.37-4.73a28.78,28.78,0,0,1,2.81,1.61c6.93,5.05,14.57,2.91,22,2.12,12.45-1.31,24.21.52,34.95,7.31,10.07,6.38,14.08,16,14.43,27.46a64.84,64.84,0,0,0,.39,7.66c1.58-10.71,1.39-21.08-6.23-30a40.36,40.36,0,0,0-29.93-14.5,141.08,141.08,0,0,0-21.83,1,22.26,22.26,0,0,1-24.6-20.51c-.09-1.36,0-2.73,0-5.07-15.15,14.85-34.7,16.4-53.13,20.88-11.7,2.84-23.38,5.82-33.6,12.48a67.1,67.1,0,0,0-11.82,9.83c-1.43,1.49-2.17,5-1.41,6.78.55,1.3,4.07,1.59,6.32,1.84a5.84,5.84,0,0,0,4.16-1.77,63.4,63.4,0,0,1-7.43-.11c-.88-.1-1.61-1.36-2.41-2.09,1-.4,2.12-1.35,2.91-1.12,7.7,2.27,15.16,1.89,22.87-.44,1.84-.56,4.77,2.56,7.2,4l-.39,1.13c-.94.13-1.87.28-2.8.39-6.92.8-13.83,1.57-20.74,2.39-5.13.61-10.23,1.36-15.37,1.86-3.75.37-6.26-1.07-6.16-5.31.09-3.79-.44-7.75.48-11.33a221.84,221.84,0,0,1,7.78-25.25c4.68-12.06,14.69-17.47,26.92-18.82,8.42-.93,16.94-1,24.74-1.4-15.87-4.19-39.9-2.15-50.79,14.07C266,150,275,134.61,285,129.7c6.94-3.42,14.59-2.31,21.9-.51,11.33,2.8,22.55,6.06,33.92,8.69,3.4.78,7.14.12,10.49,1l-52-13.14c15.4-11.94,28.24-3.76,41.14,3.36l.25-1.32-12-7.12c.3-.51.44-.94.59-1,13.82-.72,27.74-2.07,41.07,2.9,4.13,1.54,7.75,4.46,11.6,6.75.48.29,1,.84,1.44.83,9.64-.09,16.23,6.21,23.43,11.17,6.57,4.53,13.18,8.78,21.74,8.15-8.25,6-16.66,6-25.67.49,3.67,5.06,11.88,7.64,18.59,5,5.41-2.12,11-5,15.15-8.86,10.44-9.77,20.06-20.39,30.14-30.54a55.62,55.62,0,0,1,8.33-6.46q-8.6,9.81-17.21,19.61l1,.88C475,113.8,479.67,111,490.18,110.83l-18.33,14.32.55,1.12c14.2-6.1,28.37-10.46,42.31.28-9.43-.78-18.74-1-27.47,3.9l11.92-.73ZM300.34,141.23c-8.62-1-22.2,3.24-24.5,7.5Z" transform="translate(-31 62)" style="fill:#fff"/><path d="M243,261.06c9.4-9,21.78-10.58,33.58-13.75,14.59-3.93,21.53-13.89,19.28-27.95-.62-3.84-3-7.4-4.82-11.63,1.23.73,2.51,1.39,3.67,2.22,3.66,2.65,7,5.89,11,7.87,2.73,1.35,3.11,2.83,2.79,5.23-1.18,9.08-5.46,16.54-11.46,23.34-6.72,7.61-13.62,15.19-19.28,23.57-5,7.37-5.16,16-1.59,24.5-3.05-12.89,1.39-23.38,10.09-32.57,5.33-5.64,11.14-10.94,15.71-17.15,4-5.48,6.66-12,9.76-17.81,2,1.18,5.21,3,8.32,4.9a3.56,3.56,0,0,1,1.31,1.77c3.21,9.14,10.05,13.71,19.17,15.54,2.78.55,5.52,1.33,9.49,2.3-3.79,3-6.69,5.6-9.87,7.77-11.35,7.74-15.64,18.32-12.51,31.62.87,3.69,2.23,7.29,2.86,11,.49,2.82.06,5.78.26,8.65a16.36,16.36,0,0,0,1.11,5.59c1.71,3.79,3.92,7.35,5.67,11.11s2.78,8.17,5,11.71c6.2,9.82,2.6,18.56-2.12,27.72-7.77-4.18-16-5.79-24.23-3.25-3.61,1.11-7.07,4.17-9.56,7.21-6.66,8.12-5.9,20,1.32,30.07-1,3.47-3.41,4.43-6.9,4.13-14.85-1.29-27.88-7.34-39.9-15.64-9.63-6.65-18.76-14-28.23-20.9-14.7-10.7-30.31-13.24-47-4.78a5.29,5.29,0,0,1-1.3.27c7.6-15.54,26-22.64,41.21-15.86a15.08,15.08,0,0,1,5.11,4.32c8.8,10.79,19.24,19.11,33.26,21.68,9.31,1.7,18.32.42,26.57-4.71-4,.84-7.88,2-11.89,2.46-16.41,1.8-29.51-4.67-40.63-16.41a270.78,270.78,0,0,0-21.51-20.95c-11.64-9.84-25.73-12.36-40.32-9.78-6.12,1.09-11.72,5.07-16.92,7.44,3.15-14.91,27.58-25.29,49.38-19.92-6.18-6.2-16.19-5.52-38.83,2.74,2.53-7.13,7.34-12.14,13-16.17,8.81-6.28,18.19-11.19,29.66-8.3,8.52,2.14,14.25,7.55,18.54,15,3.31,5.79,7,11.41,10.83,16.87a23.57,23.57,0,0,0,6,5.47c6,4.12,12.14,4.14,16.44.34,5.27-4.67,7-12.16,3.17-18.24a47,47,0,0,0-9.57-10.83c-15.79-13.36-16.25-23.1-1.38-37.78.17-.16.23-.44-.39-1.43-2.91,2.88-5.88,5.69-8.71,8.65s-5.71,6.28-8.69,9.57c-.4-6.51,4.53-12.84,15.73-21.73a54.7,54.7,0,0,1-5.4,2.86c-2,.8-4.11,1.25-6.18,1.85Zm30.41,103.49c7.08-1.12,19.16-7.16,26.33-13.78,13.14-12.14,15.25-22.09,7.8-38.35-2.47-5.38-5.63-10.44-8.16-15.8-2.92-6.16-6-12.32-4.84-19.59,1.28-7.83,5.46-14.09,10.3-20s6.6-12.76,6.36-20.24a35.33,35.33,0,0,1-10.52,20.71c-7.15,7.2-10.42,16.13-8.08,25.9,1.59,6.65,5.22,12.88,8.41,19,3.63,7,8.1,13.75,8.46,21.93.53,11.92-5.67,20.83-14.55,27.49C287.82,357.13,279.62,360.93,273.38,364.55Z" transform="translate(-31 62)" style="fill:#fff"/><path d="M419.75,351.54l-7.93-1.39,4.17-5.71Z" transform="translate(-31 62)" style="fill:#fff"/></g><path d="M316.2,207.94l5.43-1.32c-.32,3.15-.6,5.91-.91,8.89Z" transform="translate(-31 62)" style="fill:#fff"/><path d="M300.34,141.23l-24.5,7.5C278.14,144.47,291.72,140.2,300.34,141.23Z" transform="translate(-31 62)"/><path d="M273.38,364.55c6.24-3.62,14.44-7.42,21.51-12.73,8.88-6.66,15.08-15.57,14.55-27.49-.36-8.18-4.83-14.9-8.46-21.93-3.19-6.17-6.82-12.4-8.41-19-2.34-9.77.93-18.7,8.08-25.9a35.33,35.33,0,0,0,10.52-20.71c.24,7.48-1.55,14.33-6.36,20.24s-9,12.22-10.3,20c-1.19,7.27,1.92,13.43,4.84,19.59,2.53,5.36,5.69,10.42,8.16,15.8,7.45,16.26,5.34,26.21-7.8,38.35C292.54,357.39,280.46,363.43,273.38,364.55Z" transform="translate(-31 62)"/><path d="M342.23,190l3.29-.53-3.37-3.77,8.16,2.52.48-.89-3.21-4.68,7.9,4.33-1.22-4.88a4.57,4.57,0,0,1,1.06.14c2,.88,3.93,1.76,5.88,2.69,3.58,1.71,7.15,3.46,10.72,5.18-1.93,3.26-3.35,7-5.93,9.63s-6.4,4.2-10.11,6.49c-2.68-4.72-4.6-8.86-7.25-12.45C347.36,192.05,344.69,191.37,342.23,190Zm6.23.8,8,13.23,5.41-3c-7.24-1.65-8.5-6.37-7.34-12.84Zm19.22,3.52c-.37-5.87-2.65-7.84-7.28-7.24-3.66.47-5.29,2.81-5,6.31.29,4.33,2.9,5.85,8.3,4.8-3.41-.2-6.85-.64-6.37-5.06.17-1.6,1.25-4,2.5-4.43C363.82,187.14,366,189.82,367.68,194.3Z" transform="translate(-31 62)"/><path d="M338.44,235.94c7.65,3.72,28.52-7.35,29.2-15.08h4c-.07.38,0,.7-.16.86a20.56,20.56,0,0,0-2.74,3.13c-1.1,2-1.79,4.19-2.81,6.22-5.2,10.36-10.36,12.48-21.37,9a61.68,61.68,0,0,0-7.1-1.29Zm10.87,3.57c7.2.9,11.89-2,14.26-8.27Z" transform="translate(-31 62)"/><path d="M365.2,176.71c-10.74-4.65-20.49-4.23-28.29,6C339.31,171.35,354.15,167.39,365.2,176.71Z" transform="translate(-31 62)"/><path d="M348.46,190.78l6.06-2.66c-1.16,6.47.1,11.19,7.34,12.84l-5.41,3Z" transform="translate(-31 62)" style="fill:#fff"/><path d="M367.68,194.3c-1.64-4.48-3.86-7.16-7.89-5.62-1.25.48-2.33,2.83-2.5,4.43-.48,4.42,3,4.86,6.37,5.06-5.4,1.05-8-.47-8.3-4.8-.25-3.5,1.38-5.84,5-6.31C365,186.46,367.31,188.43,367.68,194.3Z" transform="translate(-31 62)" style="fill:#fff"/><path d="M349.31,239.51l14.26-8.27C361.2,237.55,356.51,240.41,349.31,239.51Z" transform="translate(-31 62)" style="fill:#f9f9f9"/></g><g id="colors"><rect y="670" width="70.27" height="67.47" style="fill:#e53c3c"/><rect x="84.91" y="670" width="70.27" height="67.47" style="fill:#066022"/><rect x="169.82" y="670" width="70.27" height="67.47" style="fill:#631484"/><rect x="254.73" y="670" width="70.27" height="67.47" style="fill:#81b57c"/><rect y="751.53" width="70.27" height="67.47" style="fill:#bfbf77"/><rect x="84.91" y="751.53" width="70.27" height="67.47" style="fill:#4428ce"/><rect x="169.82" y="751.53" width="70.27" height="67.47" style="fill:#4b7d9b"/><rect x="254.73" y="751.53" width="70.27" height="67.47" style="fill:#cea02e"/></g></svg>